M48
; DRILL file {KiCad 9.0.7} date 2026-02-03T14:46:20+0000
; FORMAT={-:-/ absolute / metric / decimal}
; #@! TF.CreationDate,2026-02-03T14:46:20+00:00
; #@! TF.GenerationSoftware,Kicad,Pcbnew,9.0.7
; #@! TF.FileFunction,Plated,1,2,PTH
FMAT,2
METRIC
; #@! TA.AperFunction,Plated,PTH,ViaDrill
T1C0.300
; #@! TA.AperFunction,Plated,PTH,ComponentDrill
T2C0.300
; #@! TA.AperFunction,Plated,PTH,ViaDrill
T3C2.000
%
G90
G05
T1
X168.75Y-105.5
X168.75Y-106.25
X168.75Y-107.0
X170.75Y-91.75
X171.5Y-91.75
X172.0Y-106.25
X172.0Y-108.6
X172.25Y-91.75
X173.0Y-92.25
X173.0Y-93.25
X173.5Y-108.25
X177.0Y-114.0
X178.0Y-114.0
X179.75Y-109.25
X181.5Y-112.25
X182.5Y-112.25
X183.5Y-112.25
X184.5Y-112.25
X185.0Y-103.75
X185.0Y-104.75
X186.0Y-93.75
X187.0Y-93.75
X188.0Y-90.75
X188.0Y-91.75
X188.0Y-92.75
X188.0Y-93.75
X193.0Y-107.25
X194.0Y-105.25
X194.0Y-106.25
X194.0Y-107.25
T2
X178.3Y-106.5
X178.3Y-107.5
X178.3Y-108.5
T3
X160.0Y-93.25
X160.0Y-99.0
X203.0Y-93.5
X203.0Y-99.25
M30
