M48
; DRILL file KiCad 10.0.2 date 2026-05-12T19:47:50
; FORMAT={-:-/ absolute / metric / decimal}
; #@! TF.CreationDate,2026-05-12T19:47:50+01:00
; #@! TF.GenerationSoftware,Kicad,Pcbnew,10.0.2
; #@! TF.FileFunction,Plated,1,2,PTH
FMAT,2
METRIC
; #@! TA.AperFunction,Plated,PTH,ViaDrill
T1C0.300
; #@! TA.AperFunction,Plated,PTH,ComponentDrill
T2C0.300
; #@! TA.AperFunction,Plated,PTH,ViaDrill
T3C2.000
%
G90
G05
T1
X166.9Y-111.4
X166.9Y-112.1
X166.9Y-112.8
X170.75Y-91.75
X171.5Y-91.75
X172.25Y-91.75
X173.0Y-92.25
X173.0Y-93.25
X176.1Y-104.6
X177.4Y-109.75
X178.85Y-103.05
X185.8Y-111.7
X186.0Y-93.75
X186.4Y-103.1
X187.0Y-93.75
X188.0Y-90.75
X188.0Y-91.75
X188.0Y-92.75
X188.0Y-93.75
X188.4Y-103.1
X190.85Y-109.2
X191.75Y-110.75
X192.5Y-110.75
X193.25Y-110.75
X194.25Y-109.25
X194.25Y-110.0
X194.25Y-110.75
T2
X180.387Y-108.2
X180.387Y-109.3
X180.387Y-110.4
X180.387Y-111.5
X180.387Y-112.6
X181.487Y-108.2
X181.487Y-109.3
X181.487Y-110.4
X181.487Y-111.5
X181.487Y-112.6
X182.588Y-108.2
X182.588Y-109.3
X182.588Y-110.4
X182.588Y-111.5
X182.588Y-112.6
T3
X160.0Y-93.25
X160.0Y-99.0
X203.0Y-93.5
X203.0Y-99.25
M30
