%TF.GenerationSoftware,KiCad,Pcbnew,9.0.7*%
%TF.CreationDate,2026-02-03T14:45:30+00:00*%
%TF.ProjectId,LM5155-flyback,4c4d3531-3535-42d6-966c-796261636b2e,rev?*%
%TF.SameCoordinates,Original*%
%TF.FileFunction,Copper,L1,Top*%
%TF.FilePolarity,Positive*%
%FSLAX46Y46*%
G04 Gerber Fmt 4.6, Leading zero omitted, Abs format (unit mm)*
G04 Created by KiCad (PCBNEW 9.0.7) date 2026-02-03 14:45:30*
%MOMM*%
%LPD*%
G01*
G04 APERTURE LIST*
G04 Aperture macros list*
%AMRoundRect*
0 Rectangle with rounded corners*
0 $1 Rounding radius*
0 $2 $3 $4 $5 $6 $7 $8 $9 X,Y pos of 4 corners*
0 Add a 4 corners polygon primitive as box body*
4,1,4,$2,$3,$4,$5,$6,$7,$8,$9,$2,$3,0*
0 Add four circle primitives for the rounded corners*
1,1,$1+$1,$2,$3*
1,1,$1+$1,$4,$5*
1,1,$1+$1,$6,$7*
1,1,$1+$1,$8,$9*
0 Add four rect primitives between the rounded corners*
20,1,$1+$1,$2,$3,$4,$5,0*
20,1,$1+$1,$4,$5,$6,$7,0*
20,1,$1+$1,$6,$7,$8,$9,0*
20,1,$1+$1,$8,$9,$2,$3,0*%
G04 Aperture macros list end*
%TA.AperFunction,Conductor*%
%ADD10C,0.200000*%
%TD*%
%TA.AperFunction,EtchedComponent*%
%ADD11C,0.200000*%
%TD*%
%TA.AperFunction,EtchedComponent*%
%ADD12C,0.100000*%
%TD*%
%TA.AperFunction,SMDPad,CuDef*%
%ADD13RoundRect,0.250000X-0.750000X1.650000X-0.750000X-1.650000X0.750000X-1.650000X0.750000X1.650000X0*%
%TD*%
%TA.AperFunction,SMDPad,CuDef*%
%ADD14RoundRect,0.250000X1.650000X0.750000X-1.650000X0.750000X-1.650000X-0.750000X1.650000X-0.750000X0*%
%TD*%
%TA.AperFunction,SMDPad,CuDef*%
%ADD15RoundRect,0.250000X-0.475000X0.337500X-0.475000X-0.337500X0.475000X-0.337500X0.475000X0.337500X0*%
%TD*%
%TA.AperFunction,SMDPad,CuDef*%
%ADD16RoundRect,0.250000X0.450000X-0.350000X0.450000X0.350000X-0.450000X0.350000X-0.450000X-0.350000X0*%
%TD*%
%TA.AperFunction,SMDPad,CuDef*%
%ADD17RoundRect,0.250000X0.337500X0.475000X-0.337500X0.475000X-0.337500X-0.475000X0.337500X-0.475000X0*%
%TD*%
%TA.AperFunction,SMDPad,CuDef*%
%ADD18RoundRect,0.250000X-0.450000X0.350000X-0.450000X-0.350000X0.450000X-0.350000X0.450000X0.350000X0*%
%TD*%
%TA.AperFunction,SMDPad,CuDef*%
%ADD19RoundRect,0.062500X-0.187500X-0.062500X0.187500X-0.062500X0.187500X0.062500X-0.187500X0.062500X0*%
%TD*%
%TA.AperFunction,ComponentPad*%
%ADD20C,0.600000*%
%TD*%
%TA.AperFunction,SMDPad,CuDef*%
%ADD21R,1.000000X2.650000*%
%TD*%
%TA.AperFunction,SMDPad,CuDef*%
%ADD22RoundRect,0.250000X-0.350000X-0.450000X0.350000X-0.450000X0.350000X0.450000X-0.350000X0.450000X0*%
%TD*%
%TA.AperFunction,SMDPad,CuDef*%
%ADD23RoundRect,0.250000X-1.650000X-0.750000X1.650000X-0.750000X1.650000X0.750000X-1.650000X0.750000X0*%
%TD*%
%TA.AperFunction,SMDPad,CuDef*%
%ADD24RoundRect,0.250000X0.350000X0.450000X-0.350000X0.450000X-0.350000X-0.450000X0.350000X-0.450000X0*%
%TD*%
%TA.AperFunction,SMDPad,CuDef*%
%ADD25RoundRect,0.150000X0.587500X0.150000X-0.587500X0.150000X-0.587500X-0.150000X0.587500X-0.150000X0*%
%TD*%
%TA.AperFunction,SMDPad,CuDef*%
%ADD26RoundRect,0.108000X0.842000X-0.252000X0.842000X0.252000X-0.842000X0.252000X-0.842000X-0.252000X0*%
%TD*%
%TA.AperFunction,SMDPad,CuDef*%
%ADD27RoundRect,0.037500X0.200000X-0.087500X0.200000X0.087500X-0.200000X0.087500X-0.200000X-0.087500X0*%
%TD*%
%TA.AperFunction,SMDPad,CuDef*%
%ADD28RoundRect,0.030000X-0.280000X-0.070000X0.280000X-0.070000X0.280000X0.070000X-0.280000X0.070000X0*%
%TD*%
%TA.AperFunction,SMDPad,CuDef*%
%ADD29R,2.080000X1.170000*%
%TD*%
%TA.AperFunction,SMDPad,CuDef*%
%ADD30RoundRect,0.249999X-0.737501X-2.450001X0.737501X-2.450001X0.737501X2.450001X-0.737501X2.450001X0*%
%TD*%
%TA.AperFunction,SMDPad,CuDef*%
%ADD31RoundRect,0.250000X0.475000X-0.337500X0.475000X0.337500X-0.475000X0.337500X-0.475000X-0.337500X0*%
%TD*%
%TA.AperFunction,SMDPad,CuDef*%
%ADD32RoundRect,0.250000X-0.950000X-0.500000X0.950000X-0.500000X0.950000X0.500000X-0.950000X0.500000X0*%
%TD*%
%TA.AperFunction,SMDPad,CuDef*%
%ADD33RoundRect,0.250000X-0.275000X-0.500000X0.275000X-0.500000X0.275000X0.500000X-0.275000X0.500000X0*%
%TD*%
%TA.AperFunction,ViaPad*%
%ADD34C,0.600000*%
%TD*%
%TA.AperFunction,ViaPad*%
%ADD35C,4.000000*%
%TD*%
%TA.AperFunction,Conductor*%
%ADD36C,1.000000*%
%TD*%
G04 APERTURE END LIST*
D10*
%TO.N,/VIN*%
X169500000Y-94250000D02*
X171000000Y-94750000D01*
X172000000Y-94750000D01*
X174000000Y-95000000D01*
X175750000Y-95000000D01*
X175750000Y-96000000D01*
X174000000Y-96000000D01*
X171000000Y-95750000D01*
X169500000Y-95500000D01*
X168000000Y-95500000D01*
X168000000Y-92000000D01*
X169500000Y-92000000D01*
X169500000Y-94250000D01*
%TA.AperFunction,Conductor*%
G36*
X169500000Y-94250000D02*
G01*
X171000000Y-94750000D01*
X172000000Y-94750000D01*
X174000000Y-95000000D01*
X175750000Y-95000000D01*
X175750000Y-96000000D01*
X174000000Y-96000000D01*
X171000000Y-95750000D01*
X169500000Y-95500000D01*
X168000000Y-95500000D01*
X168000000Y-92000000D01*
X169500000Y-92000000D01*
X169500000Y-94250000D01*
G37*
%TD.AperFunction*%
%TO.N,/CS*%
X172500000Y-106750000D02*
X171450000Y-106750000D01*
X171550000Y-101250000D01*
X172600000Y-101250000D01*
X172500000Y-106750000D01*
%TA.AperFunction,Conductor*%
G36*
X172500000Y-106750000D02*
G01*
X171450000Y-106750000D01*
X171550000Y-101250000D01*
X172600000Y-101250000D01*
X172500000Y-106750000D01*
G37*
%TD.AperFunction*%
%TO.N,/SW*%
X174000000Y-100000000D02*
X174000000Y-100250000D01*
X171000000Y-100750000D01*
X168500000Y-98750000D01*
X172000000Y-98750000D01*
X174000000Y-100000000D01*
%TA.AperFunction,Conductor*%
G36*
X174000000Y-100000000D02*
G01*
X174000000Y-100250000D01*
X171000000Y-100750000D01*
X168500000Y-98750000D01*
X172000000Y-98750000D01*
X174000000Y-100000000D01*
G37*
%TD.AperFunction*%
X174000000Y-101000000D02*
X172500000Y-100750000D01*
X172500000Y-100250000D01*
X174000000Y-100000000D01*
X174000000Y-101000000D01*
%TA.AperFunction,Conductor*%
G36*
X174000000Y-101000000D02*
G01*
X172500000Y-100750000D01*
X172500000Y-100250000D01*
X174000000Y-100000000D01*
X174000000Y-101000000D01*
G37*
%TD.AperFunction*%
D11*
%TD*%
%TO.C,REF\u002A\u002A*%
X194260000Y-86100000D02*
X194460000Y-86350000D01*
%TO.C,REF\u002A\u002A*%
X194370000Y-87980000D02*
X194880000Y-88070000D01*
X194580000Y-86345000D02*
X194780000Y-86595000D01*
D12*
X194211573Y-86375740D02*
X195375740Y-85750000D01*
X194720896Y-88136542D01*
X195055594Y-87932813D01*
X194458958Y-88820490D01*
X194240677Y-87772740D01*
X194473511Y-88092886D01*
X194750000Y-86361188D01*
X193629490Y-86957823D01*
X194357094Y-84382104D01*
X195070146Y-84382104D01*
X194211573Y-86375740D01*
%TA.AperFunction,EtchedComponent*%
G36*
X194211573Y-86375740D02*
G01*
X195375740Y-85750000D01*
X194720896Y-88136542D01*
X195055594Y-87932813D01*
X194458958Y-88820490D01*
X194240677Y-87772740D01*
X194473511Y-88092886D01*
X194750000Y-86361188D01*
X193629490Y-86957823D01*
X194357094Y-84382104D01*
X195070146Y-84382104D01*
X194211573Y-86375740D01*
G37*
%TD.AperFunction*%
%TD*%
D13*
%TO.P,TP3,1,1*%
%TO.N,/FB*%
X187500000Y-107750000D03*
%TD*%
D14*
%TO.P,TP2,1,1*%
%TO.N,/CS*%
X171000000Y-103500000D03*
%TD*%
D15*
%TO.P,C4,1*%
%TO.N,/SS*%
X181500000Y-108462500D03*
%TO.P,C4,2*%
%TO.N,GND*%
X181500000Y-110537500D03*
%TD*%
D16*
%TO.P,R6,1*%
%TO.N,Net-(U1-GATE)*%
X167250000Y-106500000D03*
%TO.P,R6,2*%
%TO.N,/GATE*%
X167250000Y-104500000D03*
%TD*%
D17*
%TO.P,C5,1*%
%TO.N,Net-(C5-Pad1)*%
X179537500Y-112500000D03*
%TO.P,C5,2*%
%TO.N,GND*%
X177462500Y-112500000D03*
%TD*%
D18*
%TO.P,R7,1*%
%TO.N,/VIN*%
X166000000Y-93250000D03*
%TO.P,R7,2*%
%TO.N,Net-(D2-K)*%
X166000000Y-95250000D03*
%TD*%
D13*
%TO.P,TP5,1,1*%
%TO.N,/VIN*%
X168750000Y-93750000D03*
%TD*%
D19*
%TO.P,U1,1,BIAS*%
%TO.N,/VIN*%
X177350000Y-106250000D03*
%TO.P,U1,2,VCC*%
%TO.N,Net-(U1-VCC)*%
X177350000Y-106750000D03*
%TO.P,U1,3,GATE*%
%TO.N,Net-(U1-GATE)*%
X177350000Y-107250000D03*
%TO.P,U1,4,PGND*%
%TO.N,GND*%
X177350000Y-107750000D03*
%TO.P,U1,5,CS*%
%TO.N,/CS*%
X177350000Y-108250000D03*
%TO.P,U1,6,COMP*%
%TO.N,/COMP*%
X177350000Y-108750000D03*
%TO.P,U1,7,AGND*%
%TO.N,GND*%
X179250000Y-108750000D03*
%TO.P,U1,8,FB*%
%TO.N,/FB*%
X179250000Y-108250000D03*
%TO.P,U1,9,SS*%
%TO.N,/SS*%
X179250000Y-107750000D03*
%TO.P,U1,10,RT*%
%TO.N,/RT*%
X179250000Y-107250000D03*
%TO.P,U1,11,PGOOD*%
%TO.N,/PGOOD*%
X179250000Y-106750000D03*
%TO.P,U1,12,UVLO/EN/SYNC*%
%TO.N,/UVLO*%
X179250000Y-106250000D03*
D20*
%TO.P,U1,13*%
%TO.N,GND*%
X178300000Y-106500000D03*
X178300000Y-107500000D03*
D21*
X178300000Y-107500000D03*
D20*
X178300000Y-108500000D03*
%TD*%
D22*
%TO.P,R11,1*%
%TO.N,Net-(D1-A)*%
X189920000Y-97750000D03*
%TO.P,R11,2*%
%TO.N,Net-(C7-Pad2)*%
X191920000Y-97750000D03*
%TD*%
D23*
%TO.P,TP1,1,1*%
%TO.N,/GATE*%
X166000000Y-102000000D03*
%TD*%
D17*
%TO.P,C7,1*%
%TO.N,/VOUT*%
X196207500Y-97750000D03*
%TO.P,C7,2*%
%TO.N,Net-(C7-Pad2)*%
X194132500Y-97750000D03*
%TD*%
D22*
%TO.P,R9,1*%
%TO.N,/VIN*%
X177250000Y-104500000D03*
%TO.P,R9,2*%
%TO.N,/UVLO*%
X179250000Y-104500000D03*
%TD*%
D14*
%TO.P,TP6,1,1*%
%TO.N,/SW*%
X170250000Y-98000000D03*
%TD*%
D16*
%TO.P,R2,1*%
%TO.N,GND*%
X183750000Y-110500000D03*
%TO.P,R2,2*%
%TO.N,/RT*%
X183750000Y-108500000D03*
%TD*%
D24*
%TO.P,R3,1*%
%TO.N,/VOUT*%
X192420000Y-103250000D03*
%TO.P,R3,2*%
%TO.N,/FB*%
X190420000Y-103250000D03*
%TD*%
%TO.P,R8,1*%
%TO.N,/VIN*%
X183250000Y-106500000D03*
%TO.P,R8,2*%
%TO.N,/PGOOD*%
X181250000Y-106500000D03*
%TD*%
D25*
%TO.P,D2,1,A*%
%TO.N,/SW*%
X166357500Y-98950000D03*
%TO.P,D2,2,NC*%
%TO.N,unconnected-(D2-NC-Pad2)*%
X166357500Y-97050000D03*
%TO.P,D2,3,K*%
%TO.N,Net-(D2-K)*%
X164482500Y-98000000D03*
%TD*%
D26*
%TO.P,Q1,1,D*%
%TO.N,/SW*%
X171750000Y-100500000D03*
D27*
%TO.P,Q1,2,G*%
%TO.N,/GATE*%
X171050000Y-101250000D03*
%TO.P,Q1,3,S*%
%TO.N,/CS*%
X172450000Y-101250000D03*
D28*
X171750000Y-101250000D03*
%TD*%
D29*
%TO.P,T1,1,1*%
%TO.N,GND*%
X186580000Y-95500000D03*
%TO.P,T1,2,2*%
%TO.N,unconnected-(T1-Pad2)*%
X186580000Y-98000000D03*
%TO.P,T1,3,3*%
%TO.N,Net-(D1-A)*%
X186580000Y-100500000D03*
%TO.P,T1,4,4*%
%TO.N,/SW*%
X174920000Y-100500000D03*
%TO.P,T1,5*%
%TO.N,N/C*%
X174920000Y-98000000D03*
%TO.P,T1,6,6*%
%TO.N,/VIN*%
X174920000Y-95500000D03*
%TD*%
D30*
%TO.P,C1,1*%
%TO.N,GND*%
X190032500Y-93500000D03*
%TO.P,C1,2*%
%TO.N,/VOUT*%
X195307500Y-93500000D03*
%TD*%
D24*
%TO.P,R1,1*%
%TO.N,/CS*%
X172000000Y-106250000D03*
%TO.P,R1,2*%
%TO.N,GND*%
X170000000Y-106250000D03*
%TD*%
D22*
%TO.P,R4,1*%
%TO.N,/FB*%
X190420000Y-105500000D03*
%TO.P,R4,2*%
%TO.N,GND*%
X192420000Y-105500000D03*
%TD*%
D31*
%TO.P,C2,1*%
%TO.N,/VIN*%
X171500000Y-95287500D03*
%TO.P,C2,2*%
%TO.N,GND*%
X171500000Y-93212500D03*
%TD*%
%TO.P,C3,1*%
%TO.N,GND*%
X175000000Y-108287500D03*
%TO.P,C3,2*%
%TO.N,Net-(U1-VCC)*%
X175000000Y-106212500D03*
%TD*%
D14*
%TO.P,TP8,1,1*%
%TO.N,/COMP*%
X174250000Y-112250000D03*
%TD*%
D22*
%TO.P,R5,1*%
%TO.N,/COMP*%
X177500000Y-110500000D03*
%TO.P,R5,2*%
%TO.N,Net-(C5-Pad1)*%
X179500000Y-110500000D03*
%TD*%
%TO.P,R10,1*%
%TO.N,/UVLO*%
X181250000Y-104500000D03*
%TO.P,R10,2*%
%TO.N,GND*%
X183250000Y-104500000D03*
%TD*%
D14*
%TO.P,TP4,1,1*%
%TO.N,/VOUT*%
X196920000Y-100500000D03*
%TD*%
D32*
%TO.P,D1,1,K*%
%TO.N,/VOUT*%
X192295000Y-100500000D03*
D33*
%TO.P,D1,2,A*%
%TO.N,Net-(D1-A)*%
X189920000Y-100500000D03*
%TD*%
D15*
%TO.P,C6,1*%
%TO.N,/VIN*%
X164000000Y-93212500D03*
%TO.P,C6,2*%
%TO.N,Net-(D2-K)*%
X164000000Y-95287500D03*
%TD*%
D34*
%TO.N,GND*%
X173000000Y-92250000D03*
X173000000Y-93250000D03*
X172250000Y-91750000D03*
X170750000Y-91750000D03*
X171500000Y-91750000D03*
X179750000Y-109250000D03*
X178000000Y-114000000D03*
X177000000Y-114000000D03*
X168750000Y-107000000D03*
X168750000Y-106250000D03*
X168750000Y-105500000D03*
X173500000Y-108250000D03*
X182500000Y-112250000D03*
X184500000Y-112250000D03*
X183500000Y-112250000D03*
X181500000Y-112250000D03*
X193000000Y-107250000D03*
X194000000Y-107250000D03*
X194000000Y-106250000D03*
X194000000Y-105250000D03*
X185000000Y-104750000D03*
X185000000Y-103750000D03*
X186000000Y-93750000D03*
X187000000Y-93750000D03*
X188000000Y-90750000D03*
X188000000Y-91750000D03*
X188000000Y-92750000D03*
X188000000Y-93750000D03*
D35*
X203000000Y-99250000D03*
%TO.N,/VOUT*%
X203000000Y-93500000D03*
%TO.N,GND*%
X160000000Y-99000000D03*
%TO.N,/VIN*%
X160000000Y-93250000D03*
D34*
%TO.N,/CS*%
X172000000Y-108600000D03*
X172000000Y-106250000D03*
%TD*%
D10*
%TO.N,GND*%
X168750000Y-106250000D02*
X168750000Y-107000000D01*
X168750000Y-105500000D02*
X168750000Y-106250000D01*
X170000000Y-106250000D02*
X168750000Y-106250000D01*
X177925000Y-114000000D02*
X177462500Y-113537500D01*
X178000000Y-114000000D02*
X177925000Y-114000000D01*
X177462500Y-113537500D02*
X177000000Y-114000000D01*
X177462500Y-112500000D02*
X177462500Y-113537500D01*
X179250000Y-108750000D02*
X179750000Y-109250000D01*
%TO.N,/VIN*%
X185250000Y-103000000D02*
X177250000Y-103000000D01*
X185750000Y-105250000D02*
X185750000Y-103500000D01*
X177250000Y-97830000D02*
X177250000Y-103000000D01*
X184500000Y-106500000D02*
X185750000Y-105250000D01*
X183250000Y-106500000D02*
X184500000Y-106500000D01*
X185750000Y-103500000D02*
X185250000Y-103000000D01*
%TO.N,/CS*%
X177350000Y-108250000D02*
X177000000Y-108250000D01*
%TO.N,/FB*%
X179250000Y-108250000D02*
X179688840Y-108250000D01*
%TO.N,Net-(U1-GATE)*%
X172750000Y-107750000D02*
X173250000Y-107250000D01*
X168500000Y-107750000D02*
X172750000Y-107750000D01*
X167250000Y-106500000D02*
X168500000Y-107750000D01*
X173250000Y-107250000D02*
X177350000Y-107250000D01*
D36*
%TO.N,/VOUT*%
X203000000Y-93500000D02*
X195307500Y-93500000D01*
%TO.N,/VIN*%
X168250000Y-93250000D02*
X168750000Y-93750000D01*
X166000000Y-93250000D02*
X168250000Y-93250000D01*
X165962500Y-93212500D02*
X166000000Y-93250000D01*
X164000000Y-93212500D02*
X165962500Y-93212500D01*
X160037500Y-93212500D02*
X160000000Y-93250000D01*
X164000000Y-93212500D02*
X160037500Y-93212500D01*
%TO.N,Net-(D1-A)*%
X186580000Y-100500000D02*
X189920000Y-100500000D01*
D10*
X189920000Y-97750000D02*
X189920000Y-100500000D01*
%TO.N,/CS*%
X177000000Y-108250000D02*
X176074000Y-109176000D01*
X176074000Y-109176000D02*
X172576000Y-109176000D01*
X172576000Y-109176000D02*
X172000000Y-108600000D01*
%TO.N,GND*%
X176212500Y-108287500D02*
X176750000Y-107750000D01*
X175000000Y-108287500D02*
X176212500Y-108287500D01*
X176750000Y-107750000D02*
X177350000Y-107750000D01*
%TO.N,/GATE*%
X167250000Y-102750000D02*
X168000000Y-102000000D01*
X167250000Y-103500000D02*
X167250000Y-103250000D01*
X168000000Y-102000000D02*
X166000000Y-102000000D01*
X167250000Y-103500000D02*
X167250000Y-102750000D01*
X171050000Y-101250000D02*
X168750000Y-101250000D01*
X168750000Y-101250000D02*
X168000000Y-102000000D01*
X167250000Y-104500000D02*
X167250000Y-103500000D01*
%TO.N,/SW*%
X169300000Y-98950000D02*
X170250000Y-98000000D01*
X166357500Y-98950000D02*
X169300000Y-98950000D01*
%TO.N,/VIN*%
X177350000Y-104600000D02*
X177250000Y-104500000D01*
X174920000Y-95500000D02*
X177250000Y-97830000D01*
X177250000Y-103000000D02*
X177250000Y-104500000D01*
X177350000Y-106250000D02*
X177350000Y-104600000D01*
%TO.N,Net-(U1-VCC)*%
X176212500Y-106212500D02*
X175000000Y-106212500D01*
X177350000Y-106750000D02*
X176750000Y-106750000D01*
X176750000Y-106750000D02*
X176212500Y-106212500D01*
%TO.N,/COMP*%
X177500000Y-110500000D02*
X176000000Y-110500000D01*
X177350000Y-110350000D02*
X177500000Y-110500000D01*
X176000000Y-110500000D02*
X174250000Y-112250000D01*
X177350000Y-108750000D02*
X177350000Y-110350000D01*
%TO.N,/UVLO*%
X179250000Y-106250000D02*
X179250000Y-104500000D01*
X181250000Y-104500000D02*
X179250000Y-104500000D01*
%TO.N,/RT*%
X180413840Y-107250000D02*
X180737840Y-107574000D01*
X179250000Y-107250000D02*
X180413840Y-107250000D01*
X182824000Y-107574000D02*
X183750000Y-108500000D01*
X180737840Y-107574000D02*
X182824000Y-107574000D01*
%TO.N,/FB*%
X180938840Y-109500000D02*
X185750000Y-109500000D01*
X179688840Y-108250000D02*
X180938840Y-109500000D01*
X189750000Y-105500000D02*
X190420000Y-105500000D01*
X185750000Y-109500000D02*
X187500000Y-107750000D01*
X190420000Y-103250000D02*
X190420000Y-105500000D01*
X187500000Y-107750000D02*
X189750000Y-105500000D01*
%TO.N,/SS*%
X179250000Y-107750000D02*
X180346740Y-107750000D01*
X180346740Y-107750000D02*
X181059240Y-108462500D01*
X181059240Y-108462500D02*
X181500000Y-108462500D01*
%TO.N,/PGOOD*%
X179250000Y-106750000D02*
X180000000Y-106750000D01*
X180000000Y-106750000D02*
X180250000Y-106500000D01*
X180250000Y-106500000D02*
X181250000Y-106500000D01*
%TO.N,Net-(C5-Pad1)*%
X179500000Y-112462500D02*
X179537500Y-112500000D01*
X179500000Y-110500000D02*
X179500000Y-112462500D01*
%TO.N,Net-(D2-K)*%
X164000000Y-97000000D02*
X164000000Y-95287500D01*
X164000000Y-95287500D02*
X165962500Y-95287500D01*
X165962500Y-95287500D02*
X166000000Y-95250000D01*
X164482500Y-98000000D02*
X164482500Y-97482500D01*
X164482500Y-97482500D02*
X164000000Y-97000000D01*
%TO.N,Net-(C7-Pad2)*%
X191920000Y-97750000D02*
X194132500Y-97750000D01*
D36*
%TO.N,/VOUT*%
X195307500Y-93500000D02*
X196207500Y-94400000D01*
X196207500Y-97750000D02*
X196207500Y-99787500D01*
D10*
X192420000Y-103250000D02*
X192420000Y-100625000D01*
D36*
X196207500Y-94400000D02*
X196207500Y-97750000D01*
X196207500Y-99787500D02*
X196920000Y-100500000D01*
X192295000Y-100500000D02*
X196920000Y-100500000D01*
D10*
X192420000Y-100625000D02*
X192295000Y-100500000D01*
%TD*%
%TA.AperFunction,Conductor*%
%TO.N,GND*%
G36*
X162968309Y-94232685D02*
G01*
X163014064Y-94285489D01*
X163024008Y-94354647D01*
X162994983Y-94418203D01*
X162988951Y-94424681D01*
X162932289Y-94481342D01*
X162840187Y-94630663D01*
X162840185Y-94630668D01*
X162826267Y-94672671D01*
X162785001Y-94797203D01*
X162785001Y-94797204D01*
X162785000Y-94797204D01*
X162774500Y-94899983D01*
X162774500Y-95675001D01*
X162774501Y-95675019D01*
X162785000Y-95777796D01*
X162785001Y-95777799D01*
X162827669Y-95906560D01*
X162840186Y-95944334D01*
X162932288Y-96093656D01*
X163056344Y-96217712D01*
X163205666Y-96309814D01*
X163314505Y-96345879D01*
X163371949Y-96385652D01*
X163398772Y-96450167D01*
X163399500Y-96463585D01*
X163399500Y-96913330D01*
X163399499Y-96913348D01*
X163399499Y-97079054D01*
X163399498Y-97079054D01*
X163438602Y-97224992D01*
X163440423Y-97231785D01*
X163448793Y-97246283D01*
X163465267Y-97314180D01*
X163442416Y-97380207D01*
X163429089Y-97395963D01*
X163376924Y-97448128D01*
X163376917Y-97448137D01*
X163293255Y-97589603D01*
X163293254Y-97589606D01*
X163247402Y-97747426D01*
X163247401Y-97747432D01*
X163244500Y-97784298D01*
X163244500Y-98215701D01*
X163247401Y-98252567D01*
X163247402Y-98252573D01*
X163293254Y-98410393D01*
X163293255Y-98410396D01*
X163293256Y-98410398D01*
X163312258Y-98442528D01*
X163376917Y-98551862D01*
X163376923Y-98551870D01*
X163493129Y-98668076D01*
X163493133Y-98668079D01*
X163493135Y-98668081D01*
X163634602Y-98751744D01*
X163676224Y-98763836D01*
X163792426Y-98797597D01*
X163792429Y-98797597D01*
X163792431Y-98797598D01*
X163829306Y-98800500D01*
X164995500Y-98800500D01*
X165062539Y-98820185D01*
X165108294Y-98872989D01*
X165119500Y-98924500D01*
X165119500Y-99165701D01*
X165122401Y-99202567D01*
X165122402Y-99202573D01*
X165162737Y-99341405D01*
X165162538Y-99411275D01*
X165124596Y-99469945D01*
X165060957Y-99498788D01*
X165043661Y-99500000D01*
X164500000Y-99500000D01*
X164500000Y-100375500D01*
X164480315Y-100442539D01*
X164427511Y-100488294D01*
X164376002Y-100499500D01*
X164299999Y-100499500D01*
X164299980Y-100499501D01*
X164197203Y-100510000D01*
X164197200Y-100510001D01*
X164030668Y-100565185D01*
X164030663Y-100565187D01*
X163881342Y-100657289D01*
X163757289Y-100781342D01*
X163665187Y-100930663D01*
X163665186Y-100930666D01*
X163610001Y-101097203D01*
X163610001Y-101097204D01*
X163610000Y-101097204D01*
X163599500Y-101199983D01*
X163599500Y-102800001D01*
X163599501Y-102800018D01*
X163610000Y-102902796D01*
X163610001Y-102902799D01*
X163642205Y-102999983D01*
X163665186Y-103069334D01*
X163757288Y-103218656D01*
X163881344Y-103342712D01*
X164030666Y-103434814D01*
X164197203Y-103489999D01*
X164299991Y-103500500D01*
X166096659Y-103500499D01*
X166163698Y-103520184D01*
X166209453Y-103572987D01*
X166219397Y-103642146D01*
X166202198Y-103689595D01*
X166115189Y-103830659D01*
X166115185Y-103830668D01*
X166093138Y-103897203D01*
X166060001Y-103997203D01*
X166060001Y-103997204D01*
X166060000Y-103997204D01*
X166049500Y-104099983D01*
X166049500Y-104900001D01*
X166049501Y-104900019D01*
X166060000Y-105002796D01*
X166060001Y-105002799D01*
X166115185Y-105169331D01*
X166115187Y-105169336D01*
X166128048Y-105190187D01*
X166198843Y-105304965D01*
X166207289Y-105318657D01*
X166300951Y-105412319D01*
X166334436Y-105473642D01*
X166329452Y-105543334D01*
X166300951Y-105587681D01*
X166207289Y-105681342D01*
X166115187Y-105830663D01*
X166115185Y-105830668D01*
X166110839Y-105843784D01*
X166060001Y-105997203D01*
X166060001Y-105997204D01*
X166060000Y-105997204D01*
X166049500Y-106099983D01*
X166049500Y-106900001D01*
X166049501Y-106900019D01*
X166060000Y-107002796D01*
X166060001Y-107002799D01*
X166097634Y-107116366D01*
X166115186Y-107169334D01*
X166207288Y-107318656D01*
X166331344Y-107442712D01*
X166480666Y-107534814D01*
X166647203Y-107589999D01*
X166749991Y-107600500D01*
X167449902Y-107600499D01*
X167516941Y-107620183D01*
X167537583Y-107636818D01*
X168015139Y-108114374D01*
X168015149Y-108114385D01*
X168019479Y-108118715D01*
X168019480Y-108118716D01*
X168131284Y-108230520D01*
X168209935Y-108275928D01*
X168218095Y-108280639D01*
X168218097Y-108280641D01*
X168256151Y-108302611D01*
X168268215Y-108309577D01*
X168420943Y-108350501D01*
X168420946Y-108350501D01*
X168586653Y-108350501D01*
X168586669Y-108350500D01*
X171082351Y-108350500D01*
X171149390Y-108370185D01*
X171195145Y-108422989D01*
X171205089Y-108492147D01*
X171203969Y-108498690D01*
X171199500Y-108521158D01*
X171199500Y-108678846D01*
X171230261Y-108833489D01*
X171230264Y-108833501D01*
X171290602Y-108979172D01*
X171290609Y-108979185D01*
X171378210Y-109110288D01*
X171378213Y-109110292D01*
X171489707Y-109221786D01*
X171489711Y-109221789D01*
X171620814Y-109309390D01*
X171620827Y-109309397D01*
X171755516Y-109365186D01*
X171766503Y-109369737D01*
X171831147Y-109382595D01*
X171921849Y-109400638D01*
X171938605Y-109409402D01*
X171957085Y-109413423D01*
X171982123Y-109432167D01*
X171983760Y-109433023D01*
X171985339Y-109434574D01*
X172091139Y-109540374D01*
X172091149Y-109540385D01*
X172095479Y-109544715D01*
X172095480Y-109544716D01*
X172207284Y-109656520D01*
X172294095Y-109706639D01*
X172294097Y-109706641D01*
X172332151Y-109728611D01*
X172344215Y-109735577D01*
X172496943Y-109776501D01*
X172496946Y-109776501D01*
X172662653Y-109776501D01*
X172662669Y-109776500D01*
X175589363Y-109776500D01*
X175656402Y-109796185D01*
X175702157Y-109848989D01*
X175712101Y-109918147D01*
X175683076Y-109981703D01*
X175651363Y-110007887D01*
X175631287Y-110019477D01*
X175631282Y-110019481D01*
X174937582Y-110713181D01*
X174876259Y-110746666D01*
X174849901Y-110749500D01*
X172549998Y-110749500D01*
X172549981Y-110749501D01*
X172447203Y-110760000D01*
X172447200Y-110760001D01*
X172280668Y-110815185D01*
X172280663Y-110815187D01*
X172131342Y-110907289D01*
X172007289Y-111031342D01*
X171915187Y-111180663D01*
X171915186Y-111180666D01*
X171860001Y-111347203D01*
X171860001Y-111347204D01*
X171860000Y-111347204D01*
X171849500Y-111449983D01*
X171849500Y-113050001D01*
X171849501Y-113050018D01*
X171860000Y-113152796D01*
X171860001Y-113152799D01*
X171899747Y-113272743D01*
X171915186Y-113319334D01*
X172007288Y-113468656D01*
X172131344Y-113592712D01*
X172280666Y-113684814D01*
X172447203Y-113739999D01*
X172549991Y-113750500D01*
X175950008Y-113750499D01*
X176052797Y-113739999D01*
X176219334Y-113684814D01*
X176368656Y-113592712D01*
X176437675Y-113523692D01*
X176498994Y-113490210D01*
X176568686Y-113495194D01*
X176613034Y-113523695D01*
X176656654Y-113567315D01*
X176805875Y-113659356D01*
X176805880Y-113659358D01*
X176972302Y-113714505D01*
X176972309Y-113714506D01*
X177075019Y-113724999D01*
X177212499Y-113724999D01*
X177212500Y-113724998D01*
X177212500Y-112624000D01*
X177232185Y-112556961D01*
X177284989Y-112511206D01*
X177336500Y-112500000D01*
X177588500Y-112500000D01*
X177655539Y-112519685D01*
X177701294Y-112572489D01*
X177712500Y-112624000D01*
X177712500Y-113724999D01*
X177849972Y-113724999D01*
X177849986Y-113724998D01*
X177952697Y-113714505D01*
X178119119Y-113659358D01*
X178119124Y-113659356D01*
X178268345Y-113567315D01*
X178392318Y-113443342D01*
X178394165Y-113440348D01*
X178395969Y-113438724D01*
X178396798Y-113437677D01*
X178396976Y-113437818D01*
X178446110Y-113393621D01*
X178515073Y-113382396D01*
X178579156Y-113410236D01*
X178605243Y-113440341D01*
X178607288Y-113443656D01*
X178731344Y-113567712D01*
X178880666Y-113659814D01*
X179047203Y-113714999D01*
X179149991Y-113725500D01*
X179925008Y-113725499D01*
X179925016Y-113725498D01*
X179925019Y-113725498D01*
X179981302Y-113719748D01*
X180027797Y-113714999D01*
X180194334Y-113659814D01*
X180343656Y-113567712D01*
X180467712Y-113443656D01*
X180559814Y-113294334D01*
X180614999Y-113127797D01*
X180625500Y-113025009D01*
X180625499Y-111974992D01*
X180614999Y-111872203D01*
X180564997Y-111721309D01*
X180562596Y-111651485D01*
X180598327Y-111591443D01*
X180660847Y-111560250D01*
X180721708Y-111564603D01*
X180872302Y-111614505D01*
X180872309Y-111614506D01*
X180975019Y-111624999D01*
X181249999Y-111624999D01*
X181250000Y-111624998D01*
X181250000Y-110787500D01*
X181750000Y-110787500D01*
X181750000Y-111624999D01*
X182024972Y-111624999D01*
X182024986Y-111624998D01*
X182127697Y-111614505D01*
X182294119Y-111559358D01*
X182294124Y-111559356D01*
X182443345Y-111467315D01*
X182562319Y-111348342D01*
X182623642Y-111314857D01*
X182693334Y-111319841D01*
X182737681Y-111348342D01*
X182831654Y-111442315D01*
X182980875Y-111534356D01*
X182980880Y-111534358D01*
X183147302Y-111589505D01*
X183147309Y-111589506D01*
X183250019Y-111599999D01*
X183499999Y-111599999D01*
X184000000Y-111599999D01*
X184249972Y-111599999D01*
X184249986Y-111599998D01*
X184352697Y-111589505D01*
X184519119Y-111534358D01*
X184519124Y-111534356D01*
X184668345Y-111442315D01*
X184792315Y-111318345D01*
X184884356Y-111169124D01*
X184884358Y-111169119D01*
X184906439Y-111102486D01*
X198999500Y-111102486D01*
X198999500Y-111397513D01*
X199026159Y-111599998D01*
X199038007Y-111689993D01*
X199086830Y-111872203D01*
X199114361Y-111974951D01*
X199114364Y-111974961D01*
X199227254Y-112247500D01*
X199227258Y-112247510D01*
X199374761Y-112502993D01*
X199554352Y-112737040D01*
X199554358Y-112737047D01*
X199762952Y-112945641D01*
X199762959Y-112945647D01*
X199997006Y-113125238D01*
X200252489Y-113272741D01*
X200252490Y-113272741D01*
X200252493Y-113272743D01*
X200463296Y-113360060D01*
X200517218Y-113382396D01*
X200525048Y-113385639D01*
X200810007Y-113461993D01*
X201102494Y-113500500D01*
X201102501Y-113500500D01*
X201397499Y-113500500D01*
X201397506Y-113500500D01*
X201689993Y-113461993D01*
X201974952Y-113385639D01*
X202247507Y-113272743D01*
X202502994Y-113125238D01*
X202737042Y-112945646D01*
X202945646Y-112737042D01*
X203125238Y-112502994D01*
X203272743Y-112247507D01*
X203385639Y-111974952D01*
X203461993Y-111689993D01*
X203500500Y-111397506D01*
X203500500Y-111102494D01*
X203461993Y-110810007D01*
X203385639Y-110525048D01*
X203272743Y-110252493D01*
X203256581Y-110224500D01*
X203125238Y-109997006D01*
X202945647Y-109762959D01*
X202945641Y-109762952D01*
X202737047Y-109554358D01*
X202737040Y-109554352D01*
X202502993Y-109374761D01*
X202247510Y-109227258D01*
X202247500Y-109227254D01*
X201974961Y-109114364D01*
X201974954Y-109114362D01*
X201974952Y-109114361D01*
X201689993Y-109038007D01*
X201641113Y-109031571D01*
X201397513Y-108999500D01*
X201397506Y-108999500D01*
X201102494Y-108999500D01*
X201102486Y-108999500D01*
X200824085Y-109036153D01*
X200810007Y-109038007D01*
X200591972Y-109096429D01*
X200525048Y-109114361D01*
X200525038Y-109114364D01*
X200252499Y-109227254D01*
X200252489Y-109227258D01*
X199997006Y-109374761D01*
X199762959Y-109554352D01*
X199762952Y-109554358D01*
X199554358Y-109762952D01*
X199554352Y-109762959D01*
X199374761Y-109997006D01*
X199227258Y-110252489D01*
X199227254Y-110252499D01*
X199114364Y-110525038D01*
X199114361Y-110525048D01*
X199054220Y-110749501D01*
X199038008Y-110810004D01*
X199038006Y-110810015D01*
X198999500Y-111102486D01*
X184906439Y-111102486D01*
X184920706Y-111059431D01*
X184920706Y-111059430D01*
X184939504Y-111002700D01*
X184939506Y-111002690D01*
X184949999Y-110899986D01*
X184950000Y-110899973D01*
X184950000Y-110750000D01*
X184000000Y-110750000D01*
X184000000Y-111599999D01*
X183499999Y-111599999D01*
X183500000Y-111599998D01*
X183500000Y-110750000D01*
X182855000Y-110750000D01*
X182853819Y-110751181D01*
X182792496Y-110784666D01*
X182766138Y-110787500D01*
X181750000Y-110787500D01*
X181250000Y-110787500D01*
X181250000Y-110661500D01*
X181269685Y-110594461D01*
X181322489Y-110548706D01*
X181374000Y-110537500D01*
X181500000Y-110537500D01*
X181500000Y-110411500D01*
X181519685Y-110344461D01*
X181572489Y-110298706D01*
X181624000Y-110287500D01*
X182420000Y-110287500D01*
X182421181Y-110286319D01*
X182482504Y-110252834D01*
X182508862Y-110250000D01*
X184949999Y-110250000D01*
X184949999Y-110224500D01*
X184969684Y-110157461D01*
X185022488Y-110111706D01*
X185073999Y-110100500D01*
X185663331Y-110100500D01*
X185663347Y-110100501D01*
X185670943Y-110100501D01*
X185829054Y-110100501D01*
X185829057Y-110100501D01*
X185981785Y-110059577D01*
X186031904Y-110030639D01*
X186118716Y-109980520D01*
X186120866Y-109978369D01*
X186130238Y-109972864D01*
X186156990Y-109966159D01*
X186182714Y-109956210D01*
X186190400Y-109957785D01*
X186198011Y-109955878D01*
X186224141Y-109964701D01*
X186251161Y-109970239D01*
X186260088Y-109976838D01*
X186264209Y-109978230D01*
X186267436Y-109982270D01*
X186275615Y-109988316D01*
X186275681Y-109988234D01*
X186278235Y-109990253D01*
X186280730Y-109992098D01*
X186281344Y-109992712D01*
X186430666Y-110084814D01*
X186597203Y-110139999D01*
X186699991Y-110150500D01*
X188300008Y-110150499D01*
X188402797Y-110139999D01*
X188569334Y-110084814D01*
X188718656Y-109992712D01*
X188842712Y-109868656D01*
X188934814Y-109719334D01*
X188989999Y-109552797D01*
X189000500Y-109450009D01*
X189000499Y-107150096D01*
X189020184Y-107083058D01*
X189036814Y-107062420D01*
X189504294Y-106594939D01*
X189565615Y-106561456D01*
X189635306Y-106566440D01*
X189657063Y-106577079D01*
X189750666Y-106634814D01*
X189917203Y-106689999D01*
X190019991Y-106700500D01*
X190820008Y-106700499D01*
X190820016Y-106700498D01*
X190820019Y-106700498D01*
X190876302Y-106694748D01*
X190922797Y-106689999D01*
X191089334Y-106634814D01*
X191238656Y-106542712D01*
X191332675Y-106448692D01*
X191393994Y-106415210D01*
X191463686Y-106420194D01*
X191508034Y-106448695D01*
X191601654Y-106542315D01*
X191750875Y-106634356D01*
X191750880Y-106634358D01*
X191917302Y-106689505D01*
X191917309Y-106689506D01*
X192020019Y-106699999D01*
X192169999Y-106699999D01*
X192670000Y-106699999D01*
X192819972Y-106699999D01*
X192819986Y-106699998D01*
X192922697Y-106689505D01*
X193089119Y-106634358D01*
X193089124Y-106634356D01*
X193238345Y-106542315D01*
X193362315Y-106418345D01*
X193454356Y-106269124D01*
X193454358Y-106269119D01*
X193509505Y-106102697D01*
X193509506Y-106102690D01*
X193519999Y-105999986D01*
X193520000Y-105999973D01*
X193520000Y-105750000D01*
X192670000Y-105750000D01*
X192670000Y-106699999D01*
X192169999Y-106699999D01*
X192170000Y-106699998D01*
X192170000Y-105624000D01*
X192189685Y-105556961D01*
X192242489Y-105511206D01*
X192294000Y-105500000D01*
X192420000Y-105500000D01*
X192420000Y-105374000D01*
X192439685Y-105306961D01*
X192492489Y-105261206D01*
X192544000Y-105250000D01*
X193519999Y-105250000D01*
X193519999Y-105000028D01*
X193519998Y-105000013D01*
X193509505Y-104897302D01*
X193454358Y-104730880D01*
X193454356Y-104730875D01*
X193362315Y-104581654D01*
X193243695Y-104463034D01*
X193210210Y-104401711D01*
X193215194Y-104332019D01*
X193243691Y-104287676D01*
X193362712Y-104168656D01*
X193454814Y-104019334D01*
X193509999Y-103852797D01*
X193520500Y-103750009D01*
X193520499Y-102749992D01*
X193515391Y-102699992D01*
X193509999Y-102647203D01*
X193509998Y-102647200D01*
X193504724Y-102631284D01*
X193454814Y-102480666D01*
X193362712Y-102331344D01*
X193238656Y-102207288D01*
X193089334Y-102115186D01*
X193089332Y-102115185D01*
X193083187Y-102111395D01*
X193084290Y-102109605D01*
X193079069Y-102105006D01*
X193063297Y-102097804D01*
X193053394Y-102082395D01*
X193039649Y-102070290D01*
X193034765Y-102053407D01*
X193025523Y-102039026D01*
X193020500Y-102004091D01*
X193020500Y-101874499D01*
X193040185Y-101807460D01*
X193092989Y-101761705D01*
X193144500Y-101750499D01*
X193295002Y-101750499D01*
X193295008Y-101750499D01*
X193397797Y-101739999D01*
X193564334Y-101684814D01*
X193713656Y-101592712D01*
X193769549Y-101536819D01*
X193830872Y-101503334D01*
X193857230Y-101500500D01*
X194474092Y-101500500D01*
X194541131Y-101520185D01*
X194579636Y-101564271D01*
X194581395Y-101563187D01*
X194585185Y-101569331D01*
X194585186Y-101569334D01*
X194677288Y-101718656D01*
X194801344Y-101842712D01*
X194950666Y-101934814D01*
X195117203Y-101989999D01*
X195219991Y-102000500D01*
X198620008Y-102000499D01*
X198722797Y-101989999D01*
X198889334Y-101934814D01*
X199038656Y-101842712D01*
X199162712Y-101718656D01*
X199254814Y-101569334D01*
X199309999Y-101402797D01*
X199320500Y-101300009D01*
X199320499Y-99699992D01*
X199317707Y-99672664D01*
X199309999Y-99597203D01*
X199309998Y-99597200D01*
X199277387Y-99498788D01*
X199254814Y-99430666D01*
X199162712Y-99281344D01*
X199038656Y-99157288D01*
X198931138Y-99090971D01*
X198889336Y-99065187D01*
X198889331Y-99065185D01*
X198887862Y-99064698D01*
X198722797Y-99010001D01*
X198722795Y-99010000D01*
X198620016Y-98999500D01*
X198620009Y-98999500D01*
X197332000Y-98999500D01*
X197264961Y-98979815D01*
X197219206Y-98927011D01*
X197208000Y-98875500D01*
X197208000Y-98614866D01*
X197226462Y-98549768D01*
X197226823Y-98549183D01*
X197229814Y-98544334D01*
X197284999Y-98377797D01*
X197295500Y-98275009D01*
X197295499Y-97224992D01*
X197284999Y-97122203D01*
X197229814Y-96955666D01*
X197226458Y-96950225D01*
X197208000Y-96885134D01*
X197208000Y-94624500D01*
X197227685Y-94557461D01*
X197280489Y-94511706D01*
X197332000Y-94500500D01*
X200628555Y-94500500D01*
X200695594Y-94520185D01*
X200740275Y-94570699D01*
X200808051Y-94711439D01*
X200808055Y-94711445D01*
X200957477Y-94949248D01*
X201132584Y-95168825D01*
X201331175Y-95367416D01*
X201550752Y-95542523D01*
X201761589Y-95675001D01*
X201788557Y-95691946D01*
X201844850Y-95719055D01*
X202041592Y-95813801D01*
X202198356Y-95868655D01*
X202306670Y-95906556D01*
X202306682Y-95906560D01*
X202580491Y-95969055D01*
X202580497Y-95969055D01*
X202580505Y-95969057D01*
X202766547Y-95990018D01*
X202859569Y-96000499D01*
X202859572Y-96000500D01*
X202859575Y-96000500D01*
X203140428Y-96000500D01*
X203140429Y-96000499D01*
X203283055Y-95984429D01*
X203419494Y-95969057D01*
X203419499Y-95969056D01*
X203419509Y-95969055D01*
X203693318Y-95906560D01*
X203958408Y-95813801D01*
X204211445Y-95691945D01*
X204449248Y-95542523D01*
X204668825Y-95367416D01*
X204788319Y-95247922D01*
X204849642Y-95214437D01*
X204919334Y-95219421D01*
X204975267Y-95261293D01*
X204999684Y-95326757D01*
X205000000Y-95335603D01*
X205000000Y-114626000D01*
X204980315Y-114693039D01*
X204927511Y-114738794D01*
X204876000Y-114750000D01*
X158124000Y-114750000D01*
X158056961Y-114730315D01*
X158011206Y-114677511D01*
X158000000Y-114626000D01*
X158000000Y-111102486D01*
X159749500Y-111102486D01*
X159749500Y-111397513D01*
X159776159Y-111599998D01*
X159788007Y-111689993D01*
X159836830Y-111872203D01*
X159864361Y-111974951D01*
X159864364Y-111974961D01*
X159977254Y-112247500D01*
X159977258Y-112247510D01*
X160124761Y-112502993D01*
X160304352Y-112737040D01*
X160304358Y-112737047D01*
X160512952Y-112945641D01*
X160512959Y-112945647D01*
X160747006Y-113125238D01*
X161002489Y-113272741D01*
X161002490Y-113272741D01*
X161002493Y-113272743D01*
X161213296Y-113360060D01*
X161267218Y-113382396D01*
X161275048Y-113385639D01*
X161560007Y-113461993D01*
X161852494Y-113500500D01*
X161852501Y-113500500D01*
X162147499Y-113500500D01*
X162147506Y-113500500D01*
X162439993Y-113461993D01*
X162724952Y-113385639D01*
X162997507Y-113272743D01*
X163252994Y-113125238D01*
X163487042Y-112945646D01*
X163695646Y-112737042D01*
X163875238Y-112502994D01*
X164022743Y-112247507D01*
X164135639Y-111974952D01*
X164211993Y-111689993D01*
X164250500Y-111397506D01*
X164250500Y-111102494D01*
X164211993Y-110810007D01*
X164135639Y-110525048D01*
X164022743Y-110252493D01*
X164006581Y-110224500D01*
X163875238Y-109997006D01*
X163695647Y-109762959D01*
X163695641Y-109762952D01*
X163487047Y-109554358D01*
X163487040Y-109554352D01*
X163252993Y-109374761D01*
X162997510Y-109227258D01*
X162997500Y-109227254D01*
X162724961Y-109114364D01*
X162724954Y-109114362D01*
X162724952Y-109114361D01*
X162439993Y-109038007D01*
X162391113Y-109031571D01*
X162147513Y-108999500D01*
X162147506Y-108999500D01*
X161852494Y-108999500D01*
X161852486Y-108999500D01*
X161574085Y-109036153D01*
X161560007Y-109038007D01*
X161341972Y-109096429D01*
X161275048Y-109114361D01*
X161275038Y-109114364D01*
X161002499Y-109227254D01*
X161002489Y-109227258D01*
X160747006Y-109374761D01*
X160512959Y-109554352D01*
X160512952Y-109554358D01*
X160304358Y-109762952D01*
X160304352Y-109762959D01*
X160124761Y-109997006D01*
X159977258Y-110252489D01*
X159977254Y-110252499D01*
X159864364Y-110525038D01*
X159864361Y-110525048D01*
X159804220Y-110749501D01*
X159788008Y-110810004D01*
X159788006Y-110810015D01*
X159749500Y-111102486D01*
X158000000Y-111102486D01*
X158000000Y-95085603D01*
X158019685Y-95018564D01*
X158072489Y-94972809D01*
X158141647Y-94962865D01*
X158205203Y-94991890D01*
X158211681Y-94997922D01*
X158331175Y-95117416D01*
X158550752Y-95292523D01*
X158788555Y-95441945D01*
X159041592Y-95563801D01*
X159240680Y-95633465D01*
X159306670Y-95656556D01*
X159306682Y-95656560D01*
X159580491Y-95719055D01*
X159580497Y-95719055D01*
X159580505Y-95719057D01*
X159766547Y-95740018D01*
X159859569Y-95750499D01*
X159859572Y-95750500D01*
X159859575Y-95750500D01*
X160140428Y-95750500D01*
X160140429Y-95750499D01*
X160283055Y-95734429D01*
X160419494Y-95719057D01*
X160419499Y-95719056D01*
X160419509Y-95719055D01*
X160693318Y-95656560D01*
X160958408Y-95563801D01*
X161211445Y-95441945D01*
X161449248Y-95292523D01*
X161668825Y-95117416D01*
X161867416Y-94918825D01*
X162042523Y-94699248D01*
X162191945Y-94461445D01*
X162224184Y-94394500D01*
X162277784Y-94283199D01*
X162324606Y-94231339D01*
X162389504Y-94213000D01*
X162901270Y-94213000D01*
X162968309Y-94232685D01*
G37*
%TD.AperFunction*%
%TA.AperFunction,Conductor*%
G36*
X173718039Y-107870185D02*
G01*
X173763794Y-107922989D01*
X173775000Y-107974500D01*
X173775000Y-108037500D01*
X174876000Y-108037500D01*
X174943039Y-108057185D01*
X174988794Y-108109989D01*
X175000000Y-108161500D01*
X175000000Y-108413500D01*
X174980315Y-108480539D01*
X174927511Y-108526294D01*
X174876000Y-108537500D01*
X173775001Y-108537500D01*
X173773320Y-108539181D01*
X173711997Y-108572666D01*
X173685639Y-108575500D01*
X172931221Y-108575500D01*
X172919183Y-108571965D01*
X172906684Y-108573048D01*
X172886292Y-108562307D01*
X172864182Y-108555815D01*
X172855967Y-108546334D01*
X172844865Y-108540487D01*
X172833516Y-108520425D01*
X172818427Y-108503011D01*
X172816641Y-108490593D01*
X172810464Y-108479673D01*
X172811762Y-108456663D01*
X172808483Y-108433853D01*
X172813694Y-108422440D01*
X172814402Y-108409914D01*
X172827934Y-108391260D01*
X172837508Y-108370297D01*
X172849049Y-108362154D01*
X172855430Y-108353359D01*
X172875838Y-108343254D01*
X172886149Y-108335981D01*
X172892514Y-108333497D01*
X172981785Y-108309577D01*
X173031904Y-108280639D01*
X173118716Y-108230520D01*
X173230520Y-108118716D01*
X173230521Y-108118714D01*
X173462418Y-107886816D01*
X173489350Y-107872111D01*
X173515163Y-107855523D01*
X173521363Y-107854631D01*
X173523740Y-107853334D01*
X173550098Y-107850500D01*
X173651000Y-107850500D01*
X173718039Y-107870185D01*
G37*
%TD.AperFunction*%
%TA.AperFunction,Conductor*%
G36*
X178261915Y-105418301D02*
G01*
X178293334Y-105420548D01*
X178296915Y-105422850D01*
X178299978Y-105423248D01*
X178329925Y-105441925D01*
X178333951Y-105445319D01*
X178431344Y-105542712D01*
X178498908Y-105584386D01*
X178505925Y-105590301D01*
X178544493Y-105648562D01*
X178550000Y-105685106D01*
X178550000Y-105928929D01*
X178540561Y-105976381D01*
X178513992Y-106040524D01*
X178513990Y-106040529D01*
X178499500Y-106150598D01*
X178499500Y-106349403D01*
X178513989Y-106459468D01*
X178516094Y-106467322D01*
X178512814Y-106468200D01*
X178514634Y-106485206D01*
X178519299Y-106517647D01*
X178518442Y-106520777D01*
X178518581Y-106522073D01*
X178517494Y-106524240D01*
X178515248Y-106532450D01*
X178516095Y-106532677D01*
X178513990Y-106540529D01*
X178499500Y-106650598D01*
X178499500Y-106849403D01*
X178513989Y-106959468D01*
X178516094Y-106967322D01*
X178512814Y-106968200D01*
X178514634Y-106985206D01*
X178519299Y-107017647D01*
X178518442Y-107020777D01*
X178518581Y-107022073D01*
X178517494Y-107024240D01*
X178515248Y-107032450D01*
X178516095Y-107032677D01*
X178513990Y-107040529D01*
X178499500Y-107150598D01*
X178499500Y-107349403D01*
X178513989Y-107459468D01*
X178516094Y-107467322D01*
X178512814Y-107468200D01*
X178518581Y-107522073D01*
X178515517Y-107532522D01*
X178516095Y-107532677D01*
X178513990Y-107540529D01*
X178499500Y-107650598D01*
X178499500Y-107753690D01*
X178479815Y-107820729D01*
X178427011Y-107866484D01*
X178357853Y-107876428D01*
X178307764Y-107853553D01*
X178300001Y-107853553D01*
X178224330Y-107929223D01*
X178208824Y-107937689D01*
X178196368Y-107950213D01*
X178178798Y-107954084D01*
X178163007Y-107962707D01*
X178145385Y-107961446D01*
X178128135Y-107965248D01*
X178111262Y-107959006D01*
X178093315Y-107957723D01*
X178079093Y-107947106D01*
X178062605Y-107941007D01*
X178046139Y-107922505D01*
X178037582Y-107916118D01*
X178030676Y-107906944D01*
X178029279Y-107903571D01*
X177968992Y-107825004D01*
X177968671Y-107824577D01*
X177956579Y-107792423D01*
X177944168Y-107760318D01*
X177944287Y-107759735D01*
X177944078Y-107759178D01*
X177951293Y-107725574D01*
X177958206Y-107691873D01*
X177958693Y-107691114D01*
X177958747Y-107690866D01*
X177959046Y-107690564D01*
X177969356Y-107674521D01*
X178029279Y-107596429D01*
X178081581Y-107470163D01*
X178150000Y-107470163D01*
X178150000Y-107529837D01*
X178172836Y-107584968D01*
X178215032Y-107627164D01*
X178270163Y-107650000D01*
X178329837Y-107650000D01*
X178384968Y-107627164D01*
X178427164Y-107584968D01*
X178450000Y-107529837D01*
X178450000Y-107470163D01*
X178427164Y-107415032D01*
X178384968Y-107372836D01*
X178329837Y-107350000D01*
X178270163Y-107350000D01*
X178215032Y-107372836D01*
X178172836Y-107415032D01*
X178150000Y-107470163D01*
X178081581Y-107470163D01*
X178086009Y-107459472D01*
X178100500Y-107349401D01*
X178100499Y-107150600D01*
X178099876Y-107145871D01*
X178093904Y-107100500D01*
X178086009Y-107040528D01*
X178086008Y-107040525D01*
X178083905Y-107032674D01*
X178087207Y-107031789D01*
X178085376Y-107014879D01*
X178080700Y-106982353D01*
X178081633Y-106980308D01*
X178081392Y-106978075D01*
X178084501Y-106967485D01*
X178083905Y-106967326D01*
X178086008Y-106959475D01*
X178086008Y-106959474D01*
X178086009Y-106959472D01*
X178100500Y-106849401D01*
X178100499Y-106650600D01*
X178086009Y-106540528D01*
X178086008Y-106540525D01*
X178083905Y-106532674D01*
X178087207Y-106531789D01*
X178085376Y-106514879D01*
X178080700Y-106482353D01*
X178081633Y-106480308D01*
X178081392Y-106478075D01*
X178083715Y-106470163D01*
X178150000Y-106470163D01*
X178150000Y-106529837D01*
X178172836Y-106584968D01*
X178215032Y-106627164D01*
X178270163Y-106650000D01*
X178329837Y-106650000D01*
X178384968Y-106627164D01*
X178427164Y-106584968D01*
X178450000Y-106529837D01*
X178450000Y-106470163D01*
X178427164Y-106415032D01*
X178384968Y-106372836D01*
X178329837Y-106350000D01*
X178270163Y-106350000D01*
X178215032Y-106372836D01*
X178172836Y-106415032D01*
X178150000Y-106470163D01*
X178083715Y-106470163D01*
X178084501Y-106467485D01*
X178083905Y-106467326D01*
X178086008Y-106459475D01*
X178086008Y-106459474D01*
X178086009Y-106459472D01*
X178100500Y-106349401D01*
X178100499Y-106150600D01*
X178100499Y-106150598D01*
X178100499Y-106150596D01*
X178086011Y-106040536D01*
X178086009Y-106040529D01*
X178086009Y-106040528D01*
X178077375Y-106019685D01*
X178059439Y-105976381D01*
X178050000Y-105928929D01*
X178050000Y-105649340D01*
X178047380Y-105644542D01*
X178052364Y-105574850D01*
X178080865Y-105530503D01*
X178162319Y-105449049D01*
X178165571Y-105447273D01*
X178167534Y-105444126D01*
X178196007Y-105430653D01*
X178223642Y-105415564D01*
X178227340Y-105415828D01*
X178230691Y-105414243D01*
X178261915Y-105418301D01*
G37*
%TD.AperFunction*%
%TA.AperFunction,Conductor*%
G36*
X168655701Y-104564797D02*
G01*
X168680037Y-104593412D01*
X168757288Y-104718656D01*
X168881344Y-104842712D01*
X169030666Y-104934814D01*
X169164253Y-104979080D01*
X169221696Y-105018851D01*
X169248519Y-105083367D01*
X169236204Y-105152143D01*
X169190347Y-105202321D01*
X169181661Y-105207678D01*
X169181655Y-105207683D01*
X169057684Y-105331654D01*
X168965643Y-105480875D01*
X168965641Y-105480880D01*
X168910494Y-105647302D01*
X168910493Y-105647309D01*
X168900000Y-105750013D01*
X168900000Y-106000000D01*
X169876000Y-106000000D01*
X169943039Y-106019685D01*
X169988794Y-106072489D01*
X170000000Y-106124000D01*
X170000000Y-106376000D01*
X169980315Y-106443039D01*
X169927511Y-106488794D01*
X169876000Y-106500000D01*
X168900001Y-106500000D01*
X168900001Y-106749986D01*
X168910494Y-106852697D01*
X168954831Y-106986496D01*
X168955810Y-107014960D01*
X168959863Y-107043147D01*
X168956995Y-107049425D01*
X168957233Y-107056324D01*
X168942669Y-107080795D01*
X168930838Y-107106703D01*
X168925030Y-107110435D01*
X168921501Y-107116366D01*
X168896018Y-107129079D01*
X168872060Y-107144477D01*
X168862364Y-107145871D01*
X168858981Y-107147559D01*
X168837125Y-107149500D01*
X168800097Y-107149500D01*
X168733058Y-107129815D01*
X168712416Y-107113181D01*
X168486818Y-106887583D01*
X168453333Y-106826260D01*
X168450499Y-106799902D01*
X168450499Y-106099998D01*
X168450498Y-106099981D01*
X168439999Y-105997203D01*
X168439998Y-105997200D01*
X168432558Y-105974748D01*
X168384814Y-105830666D01*
X168292712Y-105681344D01*
X168199049Y-105587681D01*
X168165564Y-105526358D01*
X168170548Y-105456666D01*
X168199049Y-105412319D01*
X168237368Y-105374000D01*
X168292712Y-105318656D01*
X168384814Y-105169334D01*
X168439999Y-105002797D01*
X168450500Y-104900009D01*
X168450499Y-104658508D01*
X168470183Y-104591471D01*
X168522987Y-104545716D01*
X168592146Y-104535772D01*
X168655701Y-104564797D01*
G37*
%TD.AperFunction*%
%TA.AperFunction,Conductor*%
G36*
X185016942Y-103620185D02*
G01*
X185037584Y-103636819D01*
X185113181Y-103712416D01*
X185146666Y-103773739D01*
X185149500Y-103800097D01*
X185149500Y-104949902D01*
X185129815Y-105016941D01*
X185113181Y-105037583D01*
X184447315Y-105703448D01*
X184427501Y-105714267D01*
X184410331Y-105728930D01*
X184397423Y-105730690D01*
X184385992Y-105736933D01*
X184363471Y-105735322D01*
X184341103Y-105738374D01*
X184329295Y-105732878D01*
X184316300Y-105731949D01*
X184298224Y-105718417D01*
X184277758Y-105708892D01*
X184264461Y-105693142D01*
X184260367Y-105690077D01*
X184254838Y-105682053D01*
X184254493Y-105681508D01*
X184192712Y-105581344D01*
X184188426Y-105577058D01*
X184181356Y-105565880D01*
X184173474Y-105538304D01*
X184162745Y-105511707D01*
X184163993Y-105505133D01*
X184162155Y-105498700D01*
X184170433Y-105471239D01*
X184175787Y-105443065D01*
X184181703Y-105433859D01*
X184182323Y-105431804D01*
X184183877Y-105430476D01*
X184188886Y-105422683D01*
X184192314Y-105418346D01*
X184284356Y-105269124D01*
X184284358Y-105269119D01*
X184339505Y-105102697D01*
X184339506Y-105102690D01*
X184349999Y-104999986D01*
X184350000Y-104999973D01*
X184350000Y-104750000D01*
X183374000Y-104750000D01*
X183306961Y-104730315D01*
X183261206Y-104677511D01*
X183250000Y-104626000D01*
X183250000Y-104374000D01*
X183269685Y-104306961D01*
X183322489Y-104261206D01*
X183374000Y-104250000D01*
X184349999Y-104250000D01*
X184349999Y-104000028D01*
X184349998Y-104000013D01*
X184339505Y-103897302D01*
X184295169Y-103763504D01*
X184292767Y-103693676D01*
X184328499Y-103633634D01*
X184391019Y-103602441D01*
X184412875Y-103600500D01*
X184949903Y-103600500D01*
X185016942Y-103620185D01*
G37*
%TD.AperFunction*%
%TA.AperFunction,Conductor*%
G36*
X204943039Y-81769685D02*
G01*
X204988794Y-81822489D01*
X205000000Y-81874000D01*
X205000000Y-91664397D01*
X204980315Y-91731436D01*
X204927511Y-91777191D01*
X204858353Y-91787135D01*
X204794797Y-91758110D01*
X204788319Y-91752078D01*
X204668824Y-91632583D01*
X204604360Y-91581175D01*
X204449248Y-91457477D01*
X204211445Y-91308055D01*
X204211442Y-91308053D01*
X203958411Y-91186200D01*
X203693329Y-91093443D01*
X203693317Y-91093439D01*
X203419512Y-91030945D01*
X203419494Y-91030942D01*
X203140431Y-90999500D01*
X203140425Y-90999500D01*
X202859575Y-90999500D01*
X202859568Y-90999500D01*
X202580505Y-91030942D01*
X202580487Y-91030945D01*
X202306682Y-91093439D01*
X202306670Y-91093443D01*
X202041588Y-91186200D01*
X201788557Y-91308053D01*
X201550753Y-91457476D01*
X201331175Y-91632583D01*
X201132583Y-91831175D01*
X200957476Y-92050753D01*
X200808051Y-92288560D01*
X200740275Y-92429301D01*
X200693453Y-92481161D01*
X200628555Y-92499500D01*
X196919500Y-92499500D01*
X196852461Y-92479815D01*
X196806706Y-92427011D01*
X196795500Y-92375500D01*
X196795500Y-90999995D01*
X196795499Y-90999982D01*
X196784999Y-90897203D01*
X196767184Y-90843440D01*
X196729814Y-90730665D01*
X196637712Y-90581344D01*
X196513656Y-90457288D01*
X196420890Y-90400070D01*
X196364337Y-90365187D01*
X196364332Y-90365185D01*
X196362863Y-90364698D01*
X196197798Y-90310001D01*
X196197796Y-90310000D01*
X196095017Y-90299500D01*
X196095010Y-90299500D01*
X194519990Y-90299500D01*
X194519982Y-90299500D01*
X194417203Y-90310000D01*
X194417202Y-90310001D01*
X194334669Y-90337349D01*
X194250667Y-90365185D01*
X194250662Y-90365187D01*
X194101342Y-90457289D01*
X193977289Y-90581342D01*
X193885187Y-90730662D01*
X193885185Y-90730667D01*
X193868526Y-90780942D01*
X193830001Y-90897202D01*
X193830001Y-90897203D01*
X193830000Y-90897203D01*
X193819500Y-90999982D01*
X193819500Y-96000017D01*
X193830000Y-96102796D01*
X193885185Y-96269332D01*
X193885190Y-96269343D01*
X193925937Y-96335403D01*
X193944378Y-96402795D01*
X193923456Y-96469459D01*
X193869814Y-96514228D01*
X193820401Y-96524500D01*
X193744999Y-96524500D01*
X193744980Y-96524501D01*
X193642203Y-96535000D01*
X193642200Y-96535001D01*
X193475668Y-96590185D01*
X193475663Y-96590187D01*
X193326342Y-96682289D01*
X193202288Y-96806343D01*
X193202285Y-96806347D01*
X193130327Y-96923009D01*
X193078379Y-96969734D01*
X193009417Y-96980955D01*
X192945335Y-96953112D01*
X192919250Y-96923008D01*
X192917976Y-96920943D01*
X192862712Y-96831344D01*
X192738656Y-96707288D01*
X192628925Y-96639606D01*
X192589336Y-96615187D01*
X192589331Y-96615185D01*
X192586189Y-96614144D01*
X192422797Y-96560001D01*
X192422795Y-96560000D01*
X192320010Y-96549500D01*
X191519998Y-96549500D01*
X191519979Y-96549501D01*
X191515500Y-96549959D01*
X191446809Y-96537180D01*
X191395931Y-96489293D01*
X191379020Y-96421500D01*
X191397377Y-96361501D01*
X191454356Y-96269125D01*
X191454359Y-96269119D01*
X191509505Y-96102697D01*
X191519999Y-95999986D01*
X191520000Y-95999973D01*
X191520000Y-93750000D01*
X188545001Y-93750000D01*
X188545001Y-95999986D01*
X188555494Y-96102696D01*
X188555494Y-96102698D01*
X188610640Y-96269119D01*
X188610645Y-96269130D01*
X188702680Y-96418340D01*
X188702683Y-96418344D01*
X188826656Y-96542317D01*
X188965111Y-96627718D01*
X189011835Y-96679666D01*
X189023056Y-96748629D01*
X188995213Y-96812711D01*
X188987697Y-96820934D01*
X188977289Y-96831341D01*
X188885187Y-96980663D01*
X188885186Y-96980666D01*
X188830001Y-97147203D01*
X188830001Y-97147204D01*
X188830000Y-97147204D01*
X188819500Y-97249983D01*
X188819500Y-98250001D01*
X188819501Y-98250019D01*
X188830000Y-98352796D01*
X188830001Y-98352799D01*
X188885185Y-98519331D01*
X188885187Y-98519336D01*
X188891929Y-98530266D01*
X188977288Y-98668656D01*
X189101344Y-98792712D01*
X189250666Y-98884814D01*
X189250667Y-98884814D01*
X189256813Y-98888605D01*
X189255706Y-98890399D01*
X189300337Y-98929687D01*
X189319500Y-98995908D01*
X189319500Y-99249781D01*
X189318484Y-99253238D01*
X189319304Y-99256748D01*
X189308714Y-99286512D01*
X189299815Y-99316820D01*
X189296737Y-99320176D01*
X189295884Y-99322575D01*
X189286858Y-99330950D01*
X189271309Y-99347908D01*
X189266138Y-99351902D01*
X189176344Y-99407288D01*
X189114848Y-99468783D01*
X189108579Y-99473627D01*
X189083118Y-99483566D01*
X189059128Y-99496666D01*
X189045925Y-99498085D01*
X189043493Y-99499035D01*
X189041268Y-99498586D01*
X189032770Y-99499500D01*
X187941401Y-99499500D01*
X187874362Y-99479815D01*
X187867088Y-99474765D01*
X187862332Y-99471204D01*
X187862328Y-99471202D01*
X187727482Y-99420908D01*
X187727483Y-99420908D01*
X187667883Y-99414501D01*
X187667881Y-99414500D01*
X187667873Y-99414500D01*
X187667864Y-99414500D01*
X185492129Y-99414500D01*
X185492123Y-99414501D01*
X185432516Y-99420908D01*
X185297671Y-99471202D01*
X185297664Y-99471206D01*
X185182455Y-99557452D01*
X185182452Y-99557455D01*
X185096206Y-99672664D01*
X185096202Y-99672671D01*
X185045908Y-99807517D01*
X185039501Y-99867116D01*
X185039500Y-99867135D01*
X185039500Y-101132870D01*
X185039501Y-101132876D01*
X185045908Y-101192483D01*
X185096202Y-101327328D01*
X185096206Y-101327335D01*
X185182452Y-101442544D01*
X185182455Y-101442547D01*
X185297664Y-101528793D01*
X185297671Y-101528797D01*
X185432517Y-101579091D01*
X185432516Y-101579091D01*
X185439444Y-101579835D01*
X185492127Y-101585500D01*
X187667872Y-101585499D01*
X187727483Y-101579091D01*
X187862331Y-101528796D01*
X187867088Y-101525235D01*
X187932552Y-101500816D01*
X187941401Y-101500500D01*
X189032770Y-101500500D01*
X189099809Y-101520185D01*
X189120451Y-101536819D01*
X189176344Y-101592712D01*
X189325666Y-101684814D01*
X189492203Y-101739999D01*
X189594991Y-101750500D01*
X190245008Y-101750499D01*
X190245016Y-101750498D01*
X190245019Y-101750498D01*
X190301302Y-101744748D01*
X190347797Y-101739999D01*
X190514334Y-101684814D01*
X190663656Y-101592712D01*
X190682319Y-101574049D01*
X190743642Y-101540564D01*
X190813334Y-101545548D01*
X190857681Y-101574049D01*
X190876344Y-101592712D01*
X191025666Y-101684814D01*
X191192203Y-101739999D01*
X191294991Y-101750500D01*
X191695500Y-101750499D01*
X191704186Y-101753049D01*
X191713147Y-101751761D01*
X191737183Y-101762738D01*
X191762539Y-101770183D01*
X191768467Y-101777025D01*
X191776703Y-101780786D01*
X191790989Y-101803017D01*
X191808294Y-101822987D01*
X191810581Y-101833502D01*
X191814477Y-101839564D01*
X191819500Y-101874499D01*
X191819500Y-102004091D01*
X191799815Y-102071130D01*
X191755731Y-102109641D01*
X191756813Y-102111395D01*
X191750667Y-102115185D01*
X191750666Y-102115186D01*
X191655640Y-102173798D01*
X191601342Y-102207289D01*
X191507681Y-102300951D01*
X191446358Y-102334436D01*
X191376666Y-102329452D01*
X191332319Y-102300951D01*
X191238657Y-102207289D01*
X191238656Y-102207288D01*
X191089334Y-102115186D01*
X190922797Y-102060001D01*
X190922795Y-102060000D01*
X190820010Y-102049500D01*
X190019998Y-102049500D01*
X190019980Y-102049501D01*
X189917203Y-102060000D01*
X189917200Y-102060001D01*
X189750668Y-102115185D01*
X189750663Y-102115187D01*
X189601342Y-102207289D01*
X189477289Y-102331342D01*
X189385187Y-102480663D01*
X189385185Y-102480668D01*
X189372324Y-102519480D01*
X189330001Y-102647203D01*
X189330001Y-102647204D01*
X189330000Y-102647204D01*
X189319500Y-102749983D01*
X189319500Y-103750001D01*
X189319501Y-103750019D01*
X189330000Y-103852796D01*
X189330001Y-103852799D01*
X189377852Y-103997203D01*
X189385186Y-104019334D01*
X189434930Y-104099983D01*
X189477289Y-104168657D01*
X189595951Y-104287319D01*
X189629436Y-104348642D01*
X189624452Y-104418334D01*
X189595951Y-104462681D01*
X189477289Y-104581342D01*
X189385187Y-104730663D01*
X189385185Y-104730668D01*
X189385115Y-104730880D01*
X189330001Y-104897203D01*
X189330001Y-104897204D01*
X189330000Y-104897204D01*
X189319500Y-104999983D01*
X189319500Y-105029901D01*
X189299815Y-105096940D01*
X189283181Y-105117582D01*
X188893746Y-105507016D01*
X188832423Y-105540501D01*
X188762731Y-105535517D01*
X188724809Y-105511145D01*
X188724319Y-105511766D01*
X188718658Y-105507290D01*
X188718656Y-105507288D01*
X188582405Y-105423248D01*
X188569336Y-105415187D01*
X188569331Y-105415185D01*
X188560682Y-105412319D01*
X188402797Y-105360001D01*
X188402795Y-105360000D01*
X188300010Y-105349500D01*
X186699998Y-105349500D01*
X186699981Y-105349501D01*
X186597203Y-105360000D01*
X186597196Y-105360002D01*
X186513504Y-105387735D01*
X186485042Y-105388714D01*
X186456855Y-105392767D01*
X186450576Y-105389899D01*
X186443676Y-105390137D01*
X186419201Y-105375571D01*
X186393299Y-105363743D01*
X186389566Y-105357935D01*
X186383634Y-105354405D01*
X186370920Y-105328921D01*
X186355524Y-105304965D01*
X186354129Y-105295266D01*
X186352442Y-105291884D01*
X186350501Y-105270030D01*
X186350501Y-105250000D01*
X186350501Y-105170943D01*
X186350500Y-105170939D01*
X186350500Y-103589060D01*
X186350501Y-103589047D01*
X186350501Y-103420944D01*
X186350501Y-103420943D01*
X186309577Y-103268216D01*
X186301422Y-103254091D01*
X186230524Y-103131290D01*
X186230518Y-103131282D01*
X185618717Y-102519481D01*
X185618716Y-102519480D01*
X185531904Y-102469360D01*
X185531904Y-102469359D01*
X185531900Y-102469358D01*
X185481785Y-102440423D01*
X185329057Y-102399499D01*
X185170943Y-102399499D01*
X185163347Y-102399499D01*
X185163331Y-102399500D01*
X177974500Y-102399500D01*
X177907461Y-102379815D01*
X177861706Y-102327011D01*
X177850500Y-102275500D01*
X177850500Y-97919060D01*
X177850501Y-97919047D01*
X177850501Y-97750944D01*
X177849560Y-97747431D01*
X177809577Y-97598216D01*
X177804604Y-97589602D01*
X177730524Y-97461290D01*
X177730518Y-97461282D01*
X177636371Y-97367135D01*
X185039500Y-97367135D01*
X185039500Y-98632870D01*
X185039501Y-98632876D01*
X185045908Y-98692483D01*
X185096202Y-98827328D01*
X185096206Y-98827335D01*
X185182452Y-98942544D01*
X185182455Y-98942547D01*
X185297664Y-99028793D01*
X185297671Y-99028797D01*
X185432517Y-99079091D01*
X185432516Y-99079091D01*
X185439444Y-99079835D01*
X185492127Y-99085500D01*
X187667872Y-99085499D01*
X187727483Y-99079091D01*
X187862331Y-99028796D01*
X187977546Y-98942546D01*
X188063796Y-98827331D01*
X188114091Y-98692483D01*
X188120500Y-98632873D01*
X188120499Y-97367128D01*
X188114091Y-97307517D01*
X188092635Y-97249991D01*
X188063797Y-97172671D01*
X188063793Y-97172664D01*
X187977547Y-97057455D01*
X187977544Y-97057452D01*
X187862335Y-96971206D01*
X187862328Y-96971202D01*
X187727482Y-96920908D01*
X187727483Y-96920908D01*
X187667883Y-96914501D01*
X187667881Y-96914500D01*
X187667873Y-96914500D01*
X187667864Y-96914500D01*
X185492129Y-96914500D01*
X185492123Y-96914501D01*
X185432516Y-96920908D01*
X185297671Y-96971202D01*
X185297664Y-96971206D01*
X185182455Y-97057452D01*
X185182452Y-97057455D01*
X185096206Y-97172664D01*
X185096202Y-97172671D01*
X185045908Y-97307517D01*
X185043527Y-97329670D01*
X185039501Y-97367123D01*
X185039500Y-97367135D01*
X177636371Y-97367135D01*
X176496630Y-96227394D01*
X176463145Y-96166071D01*
X176460741Y-96136194D01*
X176460500Y-96136194D01*
X176460500Y-96133199D01*
X176460489Y-96133063D01*
X176460498Y-96132887D01*
X176460500Y-96132873D01*
X176460500Y-96132844D01*
X185040000Y-96132844D01*
X185046401Y-96192372D01*
X185046403Y-96192379D01*
X185096645Y-96327086D01*
X185096649Y-96327093D01*
X185182809Y-96442187D01*
X185182812Y-96442190D01*
X185297906Y-96528350D01*
X185297913Y-96528354D01*
X185432620Y-96578596D01*
X185432627Y-96578598D01*
X185492155Y-96584999D01*
X185492172Y-96585000D01*
X186330000Y-96585000D01*
X186830000Y-96585000D01*
X187667828Y-96585000D01*
X187667844Y-96584999D01*
X187727372Y-96578598D01*
X187727379Y-96578596D01*
X187862086Y-96528354D01*
X187862093Y-96528350D01*
X187977187Y-96442190D01*
X187977190Y-96442187D01*
X188063350Y-96327093D01*
X188063354Y-96327086D01*
X188113596Y-96192379D01*
X188113598Y-96192372D01*
X188119999Y-96132844D01*
X188120000Y-96132827D01*
X188120000Y-95750000D01*
X186830000Y-95750000D01*
X186830000Y-96585000D01*
X186330000Y-96585000D01*
X186330000Y-95750000D01*
X185040000Y-95750000D01*
X185040000Y-96132844D01*
X176460500Y-96132844D01*
X176460499Y-95450008D01*
X176460499Y-94867155D01*
X185040000Y-94867155D01*
X185040000Y-95250000D01*
X186330000Y-95250000D01*
X186830000Y-95250000D01*
X188120000Y-95250000D01*
X188120000Y-94867172D01*
X188119999Y-94867155D01*
X188113598Y-94807627D01*
X188113596Y-94807620D01*
X188063354Y-94672913D01*
X188063350Y-94672906D01*
X187977190Y-94557812D01*
X187977187Y-94557809D01*
X187862093Y-94471649D01*
X187862086Y-94471645D01*
X187727379Y-94421403D01*
X187727372Y-94421401D01*
X187667844Y-94415000D01*
X186830000Y-94415000D01*
X186830000Y-95250000D01*
X186330000Y-95250000D01*
X186330000Y-94415000D01*
X185492155Y-94415000D01*
X185432627Y-94421401D01*
X185432620Y-94421403D01*
X185297913Y-94471645D01*
X185297906Y-94471649D01*
X185182812Y-94557809D01*
X185182809Y-94557812D01*
X185096649Y-94672906D01*
X185096645Y-94672913D01*
X185046403Y-94807620D01*
X185046401Y-94807627D01*
X185040000Y-94867155D01*
X176460499Y-94867155D01*
X176460499Y-94867129D01*
X176460498Y-94867123D01*
X176454091Y-94807516D01*
X176403797Y-94672671D01*
X176403793Y-94672664D01*
X176317547Y-94557455D01*
X176317544Y-94557452D01*
X176202335Y-94471206D01*
X176202328Y-94471202D01*
X176067482Y-94420908D01*
X176067483Y-94420908D01*
X176007883Y-94414501D01*
X176007881Y-94414500D01*
X176007873Y-94414500D01*
X176007865Y-94414500D01*
X175910040Y-94414500D01*
X175893855Y-94413439D01*
X175876469Y-94411150D01*
X175750007Y-94394500D01*
X175750000Y-94394500D01*
X174045411Y-94394500D01*
X174030031Y-94393542D01*
X172647302Y-94220700D01*
X172583221Y-94192853D01*
X172544369Y-94134781D01*
X172543081Y-94064923D01*
X172565421Y-94020741D01*
X172567316Y-94018344D01*
X172659356Y-93869124D01*
X172659358Y-93869119D01*
X172714505Y-93702697D01*
X172714506Y-93702690D01*
X172724999Y-93599986D01*
X172725000Y-93599973D01*
X172725000Y-93462500D01*
X171624000Y-93462500D01*
X171556961Y-93442815D01*
X171511206Y-93390011D01*
X171500000Y-93338500D01*
X171500000Y-93212500D01*
X171374000Y-93212500D01*
X171306961Y-93192815D01*
X171261206Y-93140011D01*
X171250000Y-93088500D01*
X171250000Y-92962500D01*
X171750000Y-92962500D01*
X172724999Y-92962500D01*
X172724999Y-92825028D01*
X172724998Y-92825013D01*
X172714505Y-92722302D01*
X172659358Y-92555880D01*
X172659356Y-92555875D01*
X172567315Y-92406654D01*
X172443345Y-92282684D01*
X172294124Y-92190643D01*
X172294119Y-92190641D01*
X172127697Y-92135494D01*
X172127690Y-92135493D01*
X172024986Y-92125000D01*
X171750000Y-92125000D01*
X171750000Y-92962500D01*
X171250000Y-92962500D01*
X171250000Y-92125000D01*
X170975029Y-92125000D01*
X170975012Y-92125001D01*
X170872302Y-92135494D01*
X170705880Y-92190641D01*
X170705875Y-92190643D01*
X170556654Y-92282684D01*
X170462180Y-92377159D01*
X170400857Y-92410644D01*
X170331165Y-92405660D01*
X170275232Y-92363788D01*
X170250815Y-92298324D01*
X170250499Y-92289478D01*
X170250499Y-92049998D01*
X170250498Y-92049981D01*
X170239999Y-91947203D01*
X170239998Y-91947200D01*
X170191470Y-91800753D01*
X170184814Y-91780666D01*
X170092712Y-91631344D01*
X169968656Y-91507288D01*
X169819334Y-91415186D01*
X169652797Y-91360001D01*
X169652795Y-91360000D01*
X169550010Y-91349500D01*
X167949998Y-91349500D01*
X167949981Y-91349501D01*
X167847203Y-91360000D01*
X167847200Y-91360001D01*
X167680668Y-91415185D01*
X167680663Y-91415187D01*
X167531342Y-91507289D01*
X167407289Y-91631342D01*
X167315187Y-91780663D01*
X167315186Y-91780666D01*
X167260001Y-91947203D01*
X167260001Y-91947204D01*
X167260000Y-91947204D01*
X167249500Y-92049983D01*
X167249500Y-92125500D01*
X167229815Y-92192539D01*
X167177011Y-92238294D01*
X167125500Y-92249500D01*
X166860132Y-92249500D01*
X166795036Y-92231039D01*
X166769334Y-92215186D01*
X166602797Y-92160001D01*
X166602795Y-92160000D01*
X166500010Y-92149500D01*
X165499998Y-92149500D01*
X165499980Y-92149501D01*
X165397203Y-92160000D01*
X165397200Y-92160001D01*
X165259275Y-92205706D01*
X165220271Y-92212000D01*
X164864866Y-92212000D01*
X164799768Y-92193538D01*
X164794338Y-92190188D01*
X164794335Y-92190186D01*
X164794334Y-92190186D01*
X164627797Y-92135001D01*
X164627795Y-92135000D01*
X164525010Y-92124500D01*
X163474998Y-92124500D01*
X163474980Y-92124501D01*
X163372203Y-92135000D01*
X163372200Y-92135001D01*
X163205668Y-92190185D01*
X163205661Y-92190188D01*
X163200232Y-92193538D01*
X163135134Y-92212000D01*
X162353386Y-92212000D01*
X162286347Y-92192315D01*
X162241666Y-92141801D01*
X162191948Y-92038560D01*
X162134545Y-91947204D01*
X162042523Y-91800752D01*
X161867416Y-91581175D01*
X161668825Y-91382584D01*
X161449248Y-91207477D01*
X161211445Y-91058055D01*
X161211442Y-91058053D01*
X161090920Y-91000013D01*
X188545000Y-91000013D01*
X188545000Y-93250000D01*
X189782500Y-93250000D01*
X190282500Y-93250000D01*
X191519999Y-93250000D01*
X191519999Y-91000028D01*
X191519998Y-91000013D01*
X191509505Y-90897303D01*
X191509505Y-90897301D01*
X191454359Y-90730880D01*
X191454354Y-90730869D01*
X191362319Y-90581659D01*
X191362316Y-90581655D01*
X191238344Y-90457683D01*
X191238340Y-90457680D01*
X191089130Y-90365645D01*
X191089119Y-90365640D01*
X190922697Y-90310494D01*
X190819986Y-90300000D01*
X190282500Y-90300000D01*
X190282500Y-93250000D01*
X189782500Y-93250000D01*
X189782500Y-90300000D01*
X189245028Y-90300000D01*
X189245012Y-90300001D01*
X189142303Y-90310494D01*
X189142301Y-90310494D01*
X188975880Y-90365640D01*
X188975869Y-90365645D01*
X188826659Y-90457680D01*
X188826655Y-90457683D01*
X188702683Y-90581655D01*
X188702680Y-90581659D01*
X188610645Y-90730869D01*
X188610640Y-90730880D01*
X188555494Y-90897302D01*
X188545000Y-91000013D01*
X161090920Y-91000013D01*
X160958411Y-90936200D01*
X160693329Y-90843443D01*
X160693317Y-90843439D01*
X160419512Y-90780945D01*
X160419494Y-90780942D01*
X160140431Y-90749500D01*
X160140425Y-90749500D01*
X159859575Y-90749500D01*
X159859568Y-90749500D01*
X159580505Y-90780942D01*
X159580487Y-90780945D01*
X159306682Y-90843439D01*
X159306670Y-90843443D01*
X159041588Y-90936200D01*
X158788557Y-91058053D01*
X158550753Y-91207476D01*
X158331175Y-91382583D01*
X158211681Y-91502078D01*
X158150358Y-91535563D01*
X158080666Y-91530579D01*
X158024733Y-91488707D01*
X158000316Y-91423243D01*
X158000000Y-91414397D01*
X158000000Y-85102486D01*
X159749500Y-85102486D01*
X159749500Y-85397513D01*
X159765759Y-85521006D01*
X159788007Y-85689993D01*
X159822121Y-85817309D01*
X159864361Y-85974951D01*
X159864364Y-85974961D01*
X159977254Y-86247500D01*
X159977258Y-86247510D01*
X160124761Y-86502993D01*
X160304352Y-86737040D01*
X160304358Y-86737047D01*
X160512952Y-86945641D01*
X160512959Y-86945647D01*
X160747006Y-87125238D01*
X161002489Y-87272741D01*
X161002490Y-87272741D01*
X161002493Y-87272743D01*
X161275048Y-87385639D01*
X161560007Y-87461993D01*
X161852494Y-87500500D01*
X161852501Y-87500500D01*
X162147499Y-87500500D01*
X162147506Y-87500500D01*
X162439993Y-87461993D01*
X162724952Y-87385639D01*
X162997507Y-87272743D01*
X163252994Y-87125238D01*
X163487042Y-86945646D01*
X163544324Y-86888364D01*
X193078349Y-86888364D01*
X193080046Y-87039628D01*
X193080046Y-87039629D01*
X193122492Y-87184832D01*
X193122495Y-87184838D01*
X193202538Y-87313199D01*
X193202541Y-87313203D01*
X193314254Y-87415214D01*
X193449346Y-87483302D01*
X193597799Y-87512418D01*
X193597799Y-87512417D01*
X193604352Y-87513703D01*
X193666350Y-87545922D01*
X193701087Y-87606545D01*
X193701907Y-87660550D01*
X193698490Y-87677038D01*
X193686453Y-87735113D01*
X193696853Y-87886036D01*
X193696853Y-87886040D01*
X193696854Y-87886041D01*
X193915136Y-88933794D01*
X193939925Y-89018443D01*
X194001208Y-89130368D01*
X194012580Y-89151136D01*
X194118340Y-89259306D01*
X194249362Y-89334931D01*
X194395929Y-89372403D01*
X194547171Y-89368941D01*
X194547174Y-89368940D01*
X194547175Y-89368940D01*
X194573277Y-89360977D01*
X194691870Y-89324804D01*
X194819295Y-89243264D01*
X194919996Y-89130368D01*
X195516632Y-88242691D01*
X195579099Y-88118616D01*
X195609815Y-87970486D01*
X195599427Y-87819562D01*
X195548706Y-87677038D01*
X195491981Y-87596750D01*
X195469376Y-87530643D01*
X195473676Y-87492395D01*
X195911440Y-85896991D01*
X195927147Y-85817307D01*
X195924859Y-85666043D01*
X195881845Y-85521006D01*
X195881842Y-85521001D01*
X195801294Y-85392951D01*
X195689190Y-85291383D01*
X195689181Y-85291377D01*
X195553830Y-85223821D01*
X195553827Y-85223820D01*
X195535026Y-85220208D01*
X195482445Y-85210109D01*
X195420322Y-85178132D01*
X195385349Y-85117645D01*
X195386061Y-85102486D01*
X198999500Y-85102486D01*
X198999500Y-85397513D01*
X199015759Y-85521006D01*
X199038007Y-85689993D01*
X199072121Y-85817309D01*
X199114361Y-85974951D01*
X199114364Y-85974961D01*
X199227254Y-86247500D01*
X199227258Y-86247510D01*
X199374761Y-86502993D01*
X199554352Y-86737040D01*
X199554358Y-86737047D01*
X199762952Y-86945641D01*
X199762959Y-86945647D01*
X199997006Y-87125238D01*
X200252489Y-87272741D01*
X200252490Y-87272741D01*
X200252493Y-87272743D01*
X200525048Y-87385639D01*
X200810007Y-87461993D01*
X201102494Y-87500500D01*
X201102501Y-87500500D01*
X201397499Y-87500500D01*
X201397506Y-87500500D01*
X201689993Y-87461993D01*
X201974952Y-87385639D01*
X202247507Y-87272743D01*
X202502994Y-87125238D01*
X202737042Y-86945646D01*
X202945646Y-86737042D01*
X203125238Y-86502994D01*
X203272743Y-86247507D01*
X203385639Y-85974952D01*
X203461993Y-85689993D01*
X203500500Y-85397506D01*
X203500500Y-85102494D01*
X203461993Y-84810007D01*
X203385639Y-84525048D01*
X203272743Y-84252493D01*
X203125238Y-83997006D01*
X203108595Y-83975317D01*
X202945647Y-83762959D01*
X202945641Y-83762952D01*
X202737047Y-83554358D01*
X202737040Y-83554352D01*
X202502993Y-83374761D01*
X202247510Y-83227258D01*
X202247500Y-83227254D01*
X201974961Y-83114364D01*
X201974954Y-83114362D01*
X201974952Y-83114361D01*
X201689993Y-83038007D01*
X201641113Y-83031571D01*
X201397513Y-82999500D01*
X201397506Y-82999500D01*
X201102494Y-82999500D01*
X201102486Y-82999500D01*
X200824085Y-83036153D01*
X200810007Y-83038007D01*
X200525048Y-83114361D01*
X200525038Y-83114364D01*
X200252499Y-83227254D01*
X200252489Y-83227258D01*
X199997006Y-83374761D01*
X199762959Y-83554352D01*
X199762952Y-83554358D01*
X199554358Y-83762952D01*
X199554352Y-83762959D01*
X199374761Y-83997006D01*
X199227258Y-84252489D01*
X199227254Y-84252499D01*
X199114364Y-84525038D01*
X199114361Y-84525048D01*
X199038008Y-84810004D01*
X199038006Y-84810015D01*
X198999500Y-85102486D01*
X195386061Y-85102486D01*
X195388629Y-85047852D01*
X195391936Y-85039315D01*
X195580345Y-84601825D01*
X195593572Y-84568130D01*
X195624351Y-84420013D01*
X195614027Y-84269084D01*
X195614026Y-84269081D01*
X195614026Y-84269079D01*
X195563367Y-84126540D01*
X195563365Y-84126537D01*
X195476129Y-84002951D01*
X195476127Y-84002949D01*
X195476125Y-84002946D01*
X195442165Y-83975317D01*
X195358775Y-83907473D01*
X195262036Y-83865454D01*
X195220018Y-83847203D01*
X195145082Y-83836903D01*
X195070147Y-83826604D01*
X195070146Y-83826604D01*
X194357094Y-83826604D01*
X194340718Y-83828269D01*
X194245237Y-83837982D01*
X194245234Y-83837982D01*
X194245233Y-83837983D01*
X194120447Y-83882032D01*
X194102576Y-83888341D01*
X193978801Y-83975317D01*
X193883080Y-84092465D01*
X193822512Y-84231097D01*
X193822511Y-84231098D01*
X193094914Y-86806794D01*
X193094909Y-86806817D01*
X193078350Y-86888360D01*
X193078349Y-86888364D01*
X163544324Y-86888364D01*
X163544329Y-86888359D01*
X163637184Y-86795505D01*
X163695641Y-86737047D01*
X163695646Y-86737042D01*
X163875238Y-86502994D01*
X164022743Y-86247507D01*
X164135639Y-85974952D01*
X164211993Y-85689993D01*
X164250500Y-85397506D01*
X164250500Y-85102494D01*
X164211993Y-84810007D01*
X164135639Y-84525048D01*
X164022743Y-84252493D01*
X163875238Y-83997006D01*
X163858595Y-83975317D01*
X163695647Y-83762959D01*
X163695641Y-83762952D01*
X163487047Y-83554358D01*
X163487040Y-83554352D01*
X163252993Y-83374761D01*
X162997510Y-83227258D01*
X162997500Y-83227254D01*
X162724961Y-83114364D01*
X162724954Y-83114362D01*
X162724952Y-83114361D01*
X162439993Y-83038007D01*
X162391113Y-83031571D01*
X162147513Y-82999500D01*
X162147506Y-82999500D01*
X161852494Y-82999500D01*
X161852486Y-82999500D01*
X161574085Y-83036153D01*
X161560007Y-83038007D01*
X161275048Y-83114361D01*
X161275038Y-83114364D01*
X161002499Y-83227254D01*
X161002489Y-83227258D01*
X160747006Y-83374761D01*
X160512959Y-83554352D01*
X160512952Y-83554358D01*
X160304358Y-83762952D01*
X160304352Y-83762959D01*
X160124761Y-83997006D01*
X159977258Y-84252489D01*
X159977254Y-84252499D01*
X159864364Y-84525038D01*
X159864361Y-84525048D01*
X159788008Y-84810004D01*
X159788006Y-84810015D01*
X159749500Y-85102486D01*
X158000000Y-85102486D01*
X158000000Y-81874000D01*
X158019685Y-81806961D01*
X158072489Y-81761206D01*
X158124000Y-81750000D01*
X204876000Y-81750000D01*
X204943039Y-81769685D01*
G37*
%TD.AperFunction*%
%TD*%
M02*
